<?xml version="1.0" encoding="utf-8"?>
<!-- Generator: Adobe Illustrator 28.3.0, SVG Export Plug-In . SVG Version: 6.00 Build 0)  -->
<svg version="1.1" id="Layer_1" xmlns="http://www.w3.org/2000/svg" xmlns:xlink="http://www.w3.org/1999/xlink" x="0px" y="0px"
	 viewBox="0 0 2500 2500" style="enable-background:new 0 0 2500 2500;" xml:space="preserve">
<style type="text/css">
	.st0{fill:none;stroke:#3752A0;stroke-width:1.0116;stroke-miterlimit:33.89;}
	.st1{fill-rule:evenodd;clip-rule:evenodd;fill:#3752A0;}
	.st2{fill-rule:evenodd;clip-rule:evenodd;fill:#3AB1BD;}
	.st3{fill-rule:evenodd;clip-rule:evenodd;fill:#AD3E09;}
	.st4{fill-rule:evenodd;clip-rule:evenodd;fill:#ABB9EF;stroke:#3A5FAC;stroke-miterlimit:10;}
	.st5{fill-rule:evenodd;clip-rule:evenodd;fill:#738AE4;stroke:#617FBD;stroke-miterlimit:10;}
	.st6{fill-rule:evenodd;clip-rule:evenodd;fill:#099EAD;}
</style>
<path class="st0" d="M1554.1,1568.8c5.4,0,9.7-4.4,9.7-9.7s-4.4-9.7-9.7-9.7l0,0c-5.4,0-9.7,4.4-9.7,9.7
	S1548.7,1568.8,1554.1,1568.8z"/>
<path class="st1" d="M1550.9,1554.7h3.9c0.5,0,1,0.1,1.3,0.2c0.6,0.3,0.9,0.9,0.9,1.7c0,0.8-0.2,1.3-0.7,1.6
	c-0.5,0.3-1.1,0.5-1.8,0.5h-3.7V1554.7z M1550.9,1565v-5h3.6c0.5,0,1,0,1.4,0.2c0.6,0.3,0.8,0.8,0.9,1.6l0.1,2c0,0.3,0,0.6,0.1,0.9
	c0,0.2,0.1,0.3,0.1,0.4h1.9v-0.3c-0.2-0.1-0.4-0.3-0.5-0.7c-0.1-0.3-0.1-0.7-0.1-1l-0.1-1.6c0-0.7-0.2-1.2-0.4-1.5
	c-0.3-0.3-0.6-0.6-1.1-0.8c0.5-0.2,1-0.6,1.2-1.1c0.3-0.5,0.4-1.1,0.4-1.7c0-1.4-0.6-2.3-1.7-2.8c-0.7-0.3-1.4-0.4-2.2-0.4h-5.4
	v11.7L1550.9,1565L1550.9,1565L1550.9,1565z M1738.5,1389.4c-2.1-5.5,2.3-9.6,2.1-18.4c-0.3-8.5-2.3-18.9-2.3-18.9
	s8.6,28.5,8.8,38.3c0.3,25.4-4.1,53.6-4.1,53.6s-0.3-3.6,0.5-14.8C1745.1,1408.2,1740.7,1395.2,1738.5,1389.4L1738.5,1389.4z
	 M1448,1389.9c2.1-5.5-2.3-9.5-2-18.4c0.3-8.5,2.3-18.9,2.3-18.9s-7.7,28.5-7.8,38.3c-0.3,25.3,3.1,53.6,3.1,53.6s0.4-3.6-0.5-14.8
	C1441.4,1408.7,1445.8,1395.7,1448,1389.9L1448,1389.9z M1592.7,1431.2L1592.7,1431.2z M1587.9,1570.8c0,0-1.7-95.6-2-101.7
	c-0.3-6.1-3.7-11.6-9.5-15.7c-5.8-4.1-20.1-14.6-26.2-21.1c-6.2-6.5-25.5-28.3-25.5-28.3l-8.2,9.2c0,0,8.8,13.3,15.6,19.8
	c6.8,6.4,27.3,25.9,27.3,25.9s-20.1-2.6-32.3-5.8c-10.6-2.8-29.6-12.9-29.6-12.9l-1.3,14.3c0,0,15.3,8.2,27.9,12
	c15.4,4.5,33.7,7.8,33.7,7.8s-16,8.9-22.5,11.6l-23.8,10.2l7.8,11.3c0,0,17.7-5.8,26.2-9.9c8.5-4.1,23.5-11.2,23.5-11.2l6.1,84.7
	H1587.9L1587.9,1570.8z"/>
<path class="st2" d="M1493.6,1384.3c0,0-26.9,5.4-39.5,6.5c-3.7,0.4-19.4,20.4,1.7,86.8c6.8,21.5,27.3,37.5,27.3,37.5
	s-18.4-21.5-23.2-41.9c-2.7-11.5-6.8-37.8-6.8-37.8s8.2,16.7,11.2,23.9c3,7.2,11.9,18.3,11.9,18.3l4.4-7.4c0,0-8.3-12.7-12.6-21.8
	c-5.4-11.6-10.2-23.5-10.2-23.5s9.5,8.9,15,13.3c5.4,4.4,19.7,14,19.7,14l1.4-14c0,0-15.1-9-22.8-15.7
	c-10.2-8.8-14.3-18.4-14.3-18.4s6.1-0.3,17.7-2.7c11.6-2.4,20.1-4.1,20.1-4.1L1493.6,1384.3L1493.6,1384.3z M1457.4,1374.4
	c-6-1.9-8.6-10.8-5.9-19.9c2.7-9.1,9.7-15,15.7-13c6,1.9,8.6,10.8,5.9,19.9C1470.4,1370.5,1463.4,1376.4,1457.4,1374.4
	L1457.4,1374.4z M1522.1,1283.7c-6.1,0-11-5-11-11.1c0-6.1,5-11,11.1-11c6.1,0,11,5,11,11.1
	C1533.2,1278.8,1528.2,1283.7,1522.1,1283.7z M1514.9,1371.8c0,0-0.2-35.7,0-42.9c0.1-3.3,1.5-20.4,2-28.8c0.2-4.2-1-6.6-6.7-8.4
	c-8.2-2.6-20.6-3-20.6-3l-5.9,6.6l20.7,3.1c0,0-15.7,8-21.4,11.8c-7.7,5.1-19.7,16.8-19.7,16.8l2.8,5.1c0,0,9.1-8,16.8-13.3
	c11.2-7.7,17.9-9.7,17.9-9.7s-11.2,11.8-15.9,17.4c-4.6,5.6-10.7,13.8-10.7,13.8l3,6.4c0,0,9.5-13,14.6-18.4
	c6.1-6.4,14.8-15.8,14.8-15.8c0,0-1,13.5-0.3,26.5l2,35L1514.9,1371.8L1514.9,1371.8z M1523.1,1368.5c0,0,0-63.1,0.5-68.7
	c0.5-5.6,0.8-9.7,9.5-15.6c6.2-4.2,37.8-20.7,37.8-20.7l4.6,4.1c0,0-18.7,9.7-21.7,11.5c-3.1,1.8-11.7,7.1-11.7,7.1
	s9.7-0.8,17.6-2.3c7.9-1.6,27.6-1.6,27.6-1.6v7.2c0,0-15.3,0.8-23.5,1.5c-8.2,0.7-22.7,4.1-22.7,4.1s8.7,3.3,15.6,7.1
	c6.9,3.9,18.6,9.2,18.6,9.2l-6.6,6.9c0,0-25.8-12.8-33.2-13.8c-2.1-0.3-2.8-0.8-2.8,1.3c0,2-2.1,60.7-2.1,60.7L1523.1,1368.5
	L1523.1,1368.5z M1596.6,1570.8c0,0,1.7-95.6,2-101.7c0.4-6.1,3.7-11.6,9.5-15.7c5.8-4.1,20.1-14.6,26.2-21.1
	c6.1-6.5,25.6-28.3,25.6-28.3l8.1,9.2c0,0-8.9,13.3-15.7,19.8c-6.8,6.4-27.2,25.9-27.2,25.9s20.1-2.6,32.3-5.8
	c10.5-2.8,29.6-12.9,29.6-12.9l1.4,14.3c0,0-15.4,8.2-27.9,12c-15.4,4.5-33.7,7.8-33.7,7.8s16,8.9,22.5,11.6l23.8,10.2l-7.8,11.3
	c0,0-17.7-5.8-26.2-9.9c-8.5-4.1-23.5-11.2-23.5-11.2l-6.2,84.7H1596.6L1596.6,1570.8z M1692.9,1384.3c0,0,26.9,5.4,39.5,6.5
	c3.7,0.4,19.4,20.4-1.7,86.8c-6.8,21.5-25.5,38.8-25.5,38.8s16.7-22.8,21.5-43.2c2.7-11.5,6.8-37.8,6.8-37.8s-8.2,16.7-11.2,23.9
	c-3,7.2-11.9,18.3-11.9,18.3l-4.5-7.4c0,0,8.3-12.7,12.6-21.8c5.4-11.6,10.2-23.5,10.2-23.5s-9.5,8.9-14.9,13.3
	c-5.5,4.4-19.8,14-19.8,14l-1.4-14c0,0,15.1-9,22.8-15.7c10.2-8.8,14.3-18.4,14.3-18.4s-6.1-0.3-17.7-2.7
	c-11.6-2.4-20.1-4.1-20.1-4.1L1692.9,1384.3L1692.9,1384.3z M1729.1,1374.4c6-1.9,8.6-10.8,5.9-19.9c-2.7-9.1-9.8-15-15.7-13
	c-6,1.9-8.6,10.8-5.9,19.9C1716.1,1370.5,1723.1,1376.4,1729.1,1374.4L1729.1,1374.4z"/>
<path class="st1" d="M1738.5,1389.4c-2.1-5.5,2.3-9.6,2.1-18.4c-0.3-8.5-2.3-18.9-2.3-18.9s8.6,28.5,8.8,38.3
	c0.3,25.4-4.1,53.6-4.1,53.6s-0.3-3.6,0.5-14.8C1745.1,1408.2,1740.7,1395.2,1738.5,1389.4L1738.5,1389.4z M1662.3,1283.7
	c6.1,0,11-5,11-11c0-6.1-4.9-11-11-11c-6.1,0-11,4.9-11,11C1651.3,1278.8,1656.2,1283.7,1662.3,1283.7z M1669.6,1371.8
	c0,0,0.2-35.7,0-42.9c-0.1-3.3-1.5-20.4-2-28.8c-0.3-4.2,1-6.6,6.6-8.4c8.1-2.6,20.7-3,20.7-3l5.8,6.6l-20.7,3.1
	c0,0,15.7,8,21.5,11.8c7.7,5.1,19.7,16.8,19.7,16.8l-2.8,5.1c0,0-9.1-8-16.8-13.3c-11.2-7.7-17.9-9.7-17.9-9.7s11.2,11.8,15.8,17.4
	c4.6,5.6,10.7,13.8,10.7,13.8l-2.9,6.4c0,0-9.6-13-14.7-18.4c-6.1-6.4-14.8-15.8-14.8-15.8c0,0,1,13.5,0.2,26.5c-0.5,8.9-2,35-2,35
	L1669.6,1371.8L1669.6,1371.8z M1661.4,1368.5c0,0,0-63.1-0.5-68.7c-0.5-5.6-0.8-9.7-9.4-15.6c-6.2-4.2-37.8-20.7-37.8-20.7
	l-4.6,4.1c0,0,18.7,9.7,21.7,11.5c3.1,1.8,11.8,7.1,11.8,7.1s-9.7-0.8-17.6-2.3c-7.9-1.6-27.6-1.6-27.6-1.6v7.2
	c0,0,15.3,0.8,23.5,1.5c8.2,0.7,22.7,4.1,22.7,4.1s-8.7,3.3-15.6,7.1c-6.9,3.9-18.6,9.2-18.6,9.2l6.6,6.9c0,0,25.8-12.8,33.2-13.8
	c2-0.3,2.8-0.8,2.8,1.3c0,2,2,60.7,2,60.7L1661.4,1368.5L1661.4,1368.5z"/>
<path class="st3" d="M1422.3,793.2c0,67.9-50.1,123-111.8,123c-61.8,0-111.8-55.1-111.8-123s50.1-123,111.8-123
	C1372.2,670.2,1422.3,725.3,1422.3,793.2L1422.3,793.2z"/>
<path class="st4" d="M1282.8,2297.3 M1400,2315.9 M1357.3,2308.8 M1478.6,2308.8 M1411.1,2336.8 M1534.7,2308.9 M1534.7,2395.2
	 M728.4,2009.3h3c11,0,24.2,1.3,24.2,11.8c0,10.7-12.3,12.3-23.6,12.3h-3.6V2009.3L728.4,2009.3z M728.4,2040.8h6.4
	c16.9,0,31.2-5.4,31.2-19.6c0-12.3-8.5-19.5-35.9-19.5h-12.7v67.3h11.1V2040.8L728.4,2040.8z M785.2,2001.8H833v7.7h-36.7v18.9H832
	v7.7h-35.7v25.4H833v7.6h-47.8L785.2,2001.8L785.2,2001.8z M921,2014.6c-6.4-4.3-15.1-6.6-23.5-6.6c-20,0-35.2,12.6-35.2,27.5
	c0,14.7,15.1,27.3,35,27.3c8.7,0,17.1-2.5,23.7-7v9.9c-6.9,3.1-15.6,4.7-23.4,4.7c-25.4,0-46.4-15.2-46.4-34.7
	c0-19.9,21.1-35.4,47.4-35.4c7.8,0,15.7,1.4,22.5,4.6L921,2014.6L921,2014.6z M943.3,2001.8h11.1v67.3h-11.1V2001.8z M1029.5,2044.5
	h-31.7l15.8-27.2L1029.5,2044.5z M1034.1,2052.2l10.2,16.8h11.9l-42.5-70.1l-42.5,70.1H983l10.2-16.8H1034.1L1034.1,2052.2z
	 M1084.1,2061.4h27.1v7.6H1073v-67.3h11.1V2061.4z M1329.5,2058.6h27.1v7.7h-38.2V1999h11.1V2058.6z M1359.4,1999h12.7l21.9,28.7
	l21.8-28.7h12.8l-29.1,38v29.3h-11.1V2037L1359.4,1999z M1460.8,2021.8h-0.2l-10.4,44.4h-11.5l18.2-70.1l30.6,53l30.6-53l18.2,70.1
	h-11.4l-10.4-44.4h-0.2l-26.7,45.9L1460.8,2021.8L1460.8,2021.8z M1576.3,2006.4h3c11,0,24.2,1.3,24.2,11.8
	c0,10.7-12.3,12.3-23.6,12.3h-3.5L1576.3,2006.4L1576.3,2006.4L1576.3,2006.4z M1576.3,2038.1h6.4c16.9,0,31.2-5.5,31.2-19.6
	c0-12.3-8.5-19.5-35.9-19.5h-12.8v67.3h11.1L1576.3,2038.1L1576.3,2038.1L1576.3,2038.1z M1632.8,1999h11.1v67.3h-11.1V1999z
	 M1734.8,2011.8c-6.4-4.3-15.1-6.6-23.5-6.6c-19.9,0-35.2,12.6-35.2,27.5c0,14.8,15.1,27.3,35,27.3c8.7,0,17.1-2.5,23.7-7v9.9
	c-7.4,3.1-15.4,4.7-23.4,4.7c-25.4,0-46.4-15.3-46.4-34.8c0-19.9,21.1-35.4,47.4-35.4c7.8,0,15.7,1.5,22.4,4.6L1734.8,2011.8
	L1734.8,2011.8L1734.8,2011.8z M1797,2011.7c-3.3-4.2-7.5-6.3-14.3-6.3c-7.1,0-14.9,3.6-14.9,9.5c0,5.3,6.9,8,12.4,9.6l6.4,1.9
	c12.6,3.8,22.1,9,22.1,20.3c0,12.2-12.5,20.9-28.5,20.9c-14.4,0-25.6-8-27.5-18.9l11.2-1.8c-0.2,7.4,7.7,12.8,17.2,12.8
	c9.6,0,16.4-6.1,16.4-13.1c0-7.3-7.7-10.4-15.4-12.8l-6.2-2c-10.2-3.3-19.4-7.6-19.4-17c0-10.9,12.8-17.4,26.2-17.4
	c9.9,0,18.1,3.7,22.9,10.2L1797,2011.7L1797,2011.7z M680.3,1981.3c-4.8-6.6-10.8-10-20.5-10c-10.1,0-21.3,5.8-21.3,15.2
	c0,8.4,9.8,12.7,17.8,15.3l9.1,2.9c18.1,6,31.6,14.3,31.6,32.2c0,19.4-17.9,33.2-40.8,33.2c-20.6,0-36.7-12.7-39.4-29.8l16.1-2.9
	c-0.2,11.8,11,20.2,24.7,20.2s23.5-9.6,23.5-20.8c0-11.5-11-16.4-22-20.2l-8.8-3.1c-14.5-5.2-27.7-12.2-27.7-27
	c0-17.2,18.3-27.6,37.6-27.6c14.2,0,25.9,5.8,32.8,16.1L680.3,1981.3L680.3,1981.3z M1232.8,2057.6c-27.6,0-50.9-18.8-50.9-43.1
	c0-23.5,21-43.2,50.9-43.2c30,0,50.9,19.7,50.9,43.2C1283.7,2038.8,1260.4,2057.6,1232.8,2057.6z M1232.8,1958.9
	c-36.5,0-66.8,25-66.8,55.6c0,31.7,29.9,55.6,66.8,55.6c36.9,0,66.9-23.9,66.9-55.6C1299.7,1983.9,1269.4,1958.9,1232.8,1958.9z"/>
<path class="st5" d="M803.6,2214.7c-27,0-49.8-16.8-49.8-38.5c0-21,20.5-38.6,49.8-38.6c29.2,0,49.7,17.6,49.7,38.6
	C853.3,2197.9,830.5,2214.7,803.6,2214.7z M803.6,2126.4c-35.7,0-65.3,22.4-65.3,49.7c0,28.3,29.3,49.6,65.3,49.6
	c36,0,65.3-21.3,65.3-49.6C868.8,2148.8,839.3,2126.4,803.6,2126.4z M915.9,2139.1h4.2c15.3,0,33.9,2.2,33.9,17
	c0,15.2-17.2,17.5-33,17.5h-5V2139.1L915.9,2139.1z M938.6,2182.3c18-1.6,29.9-13,29.9-26.7c0-9.1-6-18.1-16.4-22.7
	c-9.9-4.3-21.8-4.4-32.9-4.4h-18.8v95.3h15.5v-40.3h6.4l36.7,40.3h18.8L938.6,2182.3z M1022.2,2212.9h37.9v10.9h-53.4v-95.3h15.5
	V2212.9z M1101,2139.3h5.4c31.7,0,59.2,9,59.2,36.8c0,27.7-27.4,36.8-59.2,36.8h-5.4V2139.3z M1085.5,2223.8h25.3
	c39.4,0,70.4-15.7,70.4-48.2c0-31.7-31.7-47.1-69.9-47.1h-25.8V2223.8L1085.5,2223.8z M535.5,2183.4l52.6-105l52.6,105l52.1-102
	h25.2l-77.3,148L588,2125l-52.6,104.4l-77.3-148h25.2L535.5,2183.4L535.5,2183.4z M1453.7,2152v5.7c0,39.1-36,69.1-88.1,69.1
	c-52.1,0-94.1-34.3-94.1-73.8c0-41,42.9-74.6,96.5-74.6c28.9,0,57.5,10,75.8,27.6l-16.3,11.9c-13.3-14-35.8-23.2-58.5-23.2
	c-41.7,0-74.3,25.8-74.3,57.8c0,29.8,32.1,58.1,72.3,58.1c28.9,0,60-19.1,61-42.3h-48.1V2152H1453.7L1453.7,2152z M1548,2189h-44.3
	l22.2-38.6L1548,2189z M1554.5,2199.9l14.2,23.9h16.7l-59.5-99.4l-59.5,99.4h16.7l14.2-23.9H1554.5L1554.5,2199.9z M1633.4,2160.8
	h-0.4l-14.5,63h-16l25.4-99.4l42.8,75.1l42.8-75.1l25.4,99.4h-16l-14.5-63h-0.3l-37.4,65L1633.4,2160.8L1633.4,2160.8z
	 M1769.4,2128.5h66.9v10.9H1785v26.7h49.9v10.9H1785v36h51.4v10.9h-66.9V2128.5z M1927.4,2146.5c-4.6-6-10.6-9-20-9
	c-9.9,0-20.8,5.2-20.8,13.5c0,7.5,9.6,11.4,17.4,13.7l8.9,2.7c17.7,5.3,30.9,12.7,30.9,28.7c0,17.3-17.5,29.7-39.8,29.7
	c-20.2,0-35.9-11.4-38.5-26.7l15.7-2.5c-0.2,10.5,10.7,18.1,24.1,18.1c13.4,0,23-8.6,23-18.6c0-10.2-10.7-14.6-21.5-18.1l-8.6-2.8
	c-14.2-4.7-27.1-10.8-27.1-24.2c0-15.4,17.8-24.6,36.7-24.6c13.9,0,25.3,5.2,32,14.4L1927.4,2146.5L1927.4,2146.5z"/>
<path class="st3" d="M1378,1794.5c0,0-185.2-310,151.3-617.5c337.8-308.8,449.7-538.8,422.7-665.2c0,0-62.2,277.7-350.2,424.8
	c0,0-362.7,286-526.3-167.8c0,0-130.6,159.6-14.5,339.8c116.1,180.3,101.5,128.4,130.5,271.4C1220.5,1523,1241.2,1692.9,1378,1794.5
	L1378,1794.5z"/>
<path class="st6" d="M1940.5,514.6c0,0-46.2-79.4-48.6-87.7c-2.4-8.3-15.4-36.7,5.9-50.9c21.3-14.3,71.1-45.1,74.2-49.8
	c5.8-9.1,46.8-22.5,40.8-71.1c0,0-4.8-26.1-14.2-30.9c0,0-14.2,61.6-55.7,80.6c-41.5,18.9-124.5,28.4-125.7,85.3
	C1817.3,390.2,1817.3,473.1,1940.5,514.6L1940.5,514.6z"/>
<path class="st3" d="M1938.2,466.1c0,0,35.6-43.9,39.1-48.6c3.5-4.8,29.6-24.9,19-62.8c0,0-27.3,35.5-43.9,41.5
	c-16.6,5.9-27.3,28.4-27.3,37.9c0,9.5,7.1,8.3,8.3,13C1934.6,451.8,1929.9,466.1,1938.2,466.1L1938.2,466.1z M1922.8,271.7
	c0,0,10.4-45.7,80.6-77c55.8-24.9,34.4-79.4,34.4-79.4s-32-46.2-56.9-42.7c0,0,62.8,53.3,19,97.1c0,0-99.6,42.7-94.8,77.1
	C1905,246.8,1901.4,257.4,1922.8,271.7z"/>
<path class="st6" d="M1903.8,213.6c0,0,61.6-41.5,68.8-79.4c0,0,9.5-23.7-5.9-35.6c0,0-6,29.6-24.9,40.3c-19,10.7-46.2,28.3-45,37.8
	c0,0-2.4,8.4,4.7,14.4C1908.5,197,1910.9,210,1903.8,213.6z M988.9,986.1c0,68-50.1,123-111.8,123s-111.9-55.1-111.9-123
	c0-67.9,50.1-123,111.9-123C938.9,863.1,988.9,918.2,988.9,986.1z"/>
<path class="st6" d="M936.6,1966.5c0,0-185.2-310,151.3-617.6c337.8-308.7,449.7-538.7,422.7-665.1c0,0-62.2,277.7-350.2,424.8
	c0,0-362.7,286-526.3-167.9c0,0-130.5,159.6-14.5,339.8c116,180.3,101.5,128.5,130.5,271.5C779.1,1695,799.9,1864.9,936.6,1966.5z"
	/>
</svg>
