<?xml version="1.0" encoding="utf-8"?>
<!-- Generator: Adobe Illustrator 28.3.0, SVG Export Plug-In . SVG Version: 6.00 Build 0)  -->
<svg version="1.1" id="Layer_1" xmlns="http://www.w3.org/2000/svg" xmlns:xlink="http://www.w3.org/1999/xlink" x="0px" y="0px"
	 viewBox="0 0 2500 2500" style="enable-background:new 0 0 2500 2500;" xml:space="preserve">
<style type="text/css">
	.st0{fill:url(#SVGID_1_);}
	.st1{fill-rule:evenodd;clip-rule:evenodd;fill:#CF4044;}
	.st2{fill:#872426;}
	.st3{fill-rule:evenodd;clip-rule:evenodd;fill:#352E78;}
	.st4{fill-rule:evenodd;clip-rule:evenodd;fill:#FFFFFF;}
	.st5{fill-rule:evenodd;clip-rule:evenodd;fill:#EFEFF0;}
	.st6{fill-rule:evenodd;clip-rule:evenodd;fill:#DFE0E1;}
	.st7{fill-rule:evenodd;clip-rule:evenodd;fill:#D5D6D7;}
	.st8{fill-rule:evenodd;clip-rule:evenodd;fill:#C6C7C9;}
	.st9{fill-rule:evenodd;clip-rule:evenodd;fill:#B9BABC;}
	.st10{fill-rule:evenodd;clip-rule:evenodd;fill:#ACAEB0;}
	.st11{fill-rule:evenodd;clip-rule:evenodd;fill:#A0A2A4;}
	.st12{fill-rule:evenodd;clip-rule:evenodd;fill:#949698;}
	.st13{fill-rule:evenodd;clip-rule:evenodd;fill:#87898B;}
	.st14{fill-rule:evenodd;clip-rule:evenodd;fill:#7C7D80;}
	.st15{fill-rule:evenodd;clip-rule:evenodd;fill:#717274;}
	.st16{fill-rule:evenodd;clip-rule:evenodd;fill:#656668;}
	.st17{fill-rule:evenodd;clip-rule:evenodd;fill:#59595B;}
	.st18{fill-rule:evenodd;clip-rule:evenodd;fill:#4A494B;}
	.st19{fill-rule:evenodd;clip-rule:evenodd;fill:#363637;}
	.st20{fill-rule:evenodd;clip-rule:evenodd;fill:#932B2B;}
	.st21{fill-rule:evenodd;clip-rule:evenodd;fill:#6652A2;}
	.st22{fill-rule:evenodd;clip-rule:evenodd;fill:#6F5F9E;}
	.st23{fill-rule:evenodd;clip-rule:evenodd;fill:#D43694;}
	.st24{fill-rule:evenodd;clip-rule:evenodd;fill:#BB1D1D;}
	.st25{fill-rule:evenodd;clip-rule:evenodd;fill:#311E2F;}
	.st26{fill-rule:evenodd;clip-rule:evenodd;fill:#ECB73B;}
</style>
<radialGradient id="SVGID_1_" cx="1319.9977" cy="1305.1724" r="1158.0522" gradientTransform="matrix(0.9325 0 0 1.0043 14.5114 -65.9304)" gradientUnits="userSpaceOnUse">
	<stop  offset="0" style="stop-color:#FFFFFF"/>
	<stop  offset="0.959" style="stop-color:#231F20"/>
</radialGradient>
<path class="st0" d="M214.8,31h2061v2427.6h-2061V31z"/>
<path class="st1" d="M429.6,2407.8h1640H429.6z"/>
<path class="st2" d="M429.6,2325.9h1640v25.5h-1640V2325.9z"/>
<path class="st3" d="M828.1,2010.7l5.6,2.8c2.8,1.4,4.2,2.8,8.4,5.6c-5.6,9.8-13.9,20.9-19.5,30.6c-8.4-5.6-22.3-9.8-33.4-4.2
	c-4.2,2.8-9.8,7-11.1,12.5c-4.2,7-1.4,15.3,4.2,20.9c7,8.4,19.5,11.1,30.7,7l11.1-7c7,12.5,12.5,22.3,19.5,32
	c-16.7,13.9-41.8,16.7-62.7,11.1c-18.1-2.8-39-22.3-43.2-43.2c-4.2-20.9,1.4-39,15.3-54.3C772.4,2006.5,803.1,2000.9,828.1,2010.7
	L828.1,2010.7z"/>
<path class="st4" d="M1170.9,105.9l1.4,1.4c-12.5,7-25.1,12.5-37.6,22.3l-2.8,1.4c27.9-4.2,47.4-5.6,55.7-5.6
	c1.4,5.6,1.4,8.4,1.4,11.1c-19.5,1.4-41.8,4.2-59.9,8.4h2.8l39,19.5c-1.4,7-2.8,7-5.6,11.1c-16.7-7-29.3-11.1-48.8-16.7
	c-4.2,25.1-2.8,52.9-1.4,79.4l-12.5,4.2c-4.2-33.4-1.4-69.7,2.8-103.1c18.1-18.1,37.6-27.9,58.5-37.6
	C1168.1,104.5,1168.1,104.5,1170.9,105.9L1170.9,105.9z M1285.2,138c5.6,34.8,7,71.1,1.4,104.5c-4.2-1.4-5.6-1.4-11.1-4.2
	c2.8-29.3,2.8-54.3-2.8-80.8c-16.7,4.2-29.3,11.1-47.4,19.5c-2.8-4.2-2.8-5.6-7-11.1l43.2-22.3h-4.2c-18.1-4.2-36.2-5.6-54.3-7v-9.8
	c23.7,0,36.2,1.4,54.3,4.2c-11.2-11.1-25.1-16.7-39-23.7c2.8-2.8,4.2-4.2,7-5.6C1246.1,111.5,1267.1,119.9,1285.2,138L1285.2,138z
	 M1097.1,142.2l-1.4,4.2c-5.6,33.4-5.6,66.9-2.8,98.9l-12.5,4.2v-2.8c-2.8-25.1-1.4-51.6-1.4-76.6c-13.9,12.5-25.1,27.9-37.6,41.8
	l-5.6-5.6c9.8-15.3,22.3-27.9,33.4-40.4l-8.4,4.2c-13.9,7-22.3,13.9-34.8,23.7c0-2.8-1.4-4.2-2.8-8.4c15.3-15.3,36.2-29.3,50.2-34.8
	c-8.4-4.2-11.1-5.6-23.7-8.4c2.8-4.2,5.6-7,8.4-9.8c8.4,1.4,12.5,1.4,19.5,4.2L1097.1,142.2L1097.1,142.2z M1340.9,143.6
	c-8.4,2.8-16.7,4.2-23.7,7c16.7,8.4,34.8,19.5,50.2,36.2c-1.4,2.8-1.4,4.2-2.8,7c-13.9-9.8-26.5-19.5-40.4-26.5
	c9.8,12.5,22.3,26.5,30.6,40.4c-1.4,1.4-2.8,1.4-4.2,2.8l-2.8,1.4c-11.1-13.9-22.3-29.3-36.2-41.8v46l-2.8,34.8
	c-5.6-1.4-8.4-2.8-11.1-4.2c2.8-33.4,1.4-71.1-2.8-104.5c16.7-4.2,23.7-5.6,36.2-7C1333.9,138,1336.7,139.4,1340.9,143.6
	L1340.9,143.6z M998.1,246.7c5.6,19.5-1.4,32-2.8,50.2c0,9.8-1.4,16.7-1.4,26.5c2.8,1.4,2.8-8.4,2.8-13.9c1.4-12.5,2.8-30.6,7-34.8
	c13.9-2.8,27.9-5.6,43.2-8.4l13.9-1.4c1.4,5.6,1.4,9.8,2.8,15.3c-16.7,2.8-33.4,5.6-50.2,11.1c8.4,18.1,29.3,33.4,46,44.6v19.5
	c-18.1-8.4-29.3-18.1-41.8-29.3c4.2,18.1,15.3,36.2,25.1,54.3c-2.8,2.8-4.2,5.6-7,9.8c-9.8-13.9-19.5-30.7-25.1-47.4l-1.4-1.4
	c-1.4,37.6,12.5,66.9,32,97.5v4.2c-29.3-33.4-43.2-72.4-46-117c-1.4,5.6-1.4,8.4-1.4,16.7c-9.7-39-7-86.4,5.6-122.6
	C998.1,232.7,995.3,238.3,998.1,246.7L998.1,246.7z M1403.6,306.6c-1.4,15.3-2.8,25.1-5.6,36.2c0-9.8,0-12.5-2.8-19.5v13.9
	c-4.2,40.4-19.5,76.6-47.4,107.3V439c22.3-29.3,32-64.1,36.2-100.3c-2.8,8.4-7,15.3-11.1,23.7c-5.6,11.1-13.9,20.9-20.9,32
	c-4.2-5.6-5.6-5.6-7-9.8c8.4-16.7,22.3-39,29.3-57.1h-1.4c-12.5,12.5-27.9,22.3-43.2,30.6v-20.9c16.7-11.1,37.6-25.1,47.4-44.6
	c-16.7-2.8-33.4-7-47.4-9.8c0-7,1.4-11.1,1.4-18.1l55.7,9.8c5.6,1.4,8.4,29.3,8.4,44.6c8.4-12.5-8.4-51.6-1.4-76.6
	c0-5.6-1.4-12.5-2.8-23.7C1400.8,238.3,1403.6,277.3,1403.6,306.6L1403.6,306.6z M1221.1,280.1c7,9.8,5.6,25.1,0,34.8
	c-8.4,11.2-20.9,18.1-34.8,13.9c-11.1-2.8-20.9-12.5-22.3-22.3c-2.8-13.9,0-26.5,9.8-34.8c8.4-5.6,20.9-9.8,30.6-5.6
	C1211.3,269,1218.3,274.5,1221.1,280.1z M1127.7,317.7c16.7,18.1,39,34.8,58.5,50.2V379c1.4,50.2,1.4,92,2.8,137.9
	c-5.6,0-12.5,1.4-19.5,0c-1.4-33.4-2.8-75.2-5.6-111.5c-20.9,9.8-44.6,19.5-66.9,26.5c-4.2-5.6-7-9.8-9.8-15.3
	c19.5-11.1,40.4-18.1,55.7-29.3c-13.9-4.2-27.9-7-40.4-12.5c-12.5-2.8-22.3-7-33.4-12.5v-19.5c25.1,8.4,50.2,19.5,78,22.3l1.4-1.4
	c-19.5-19.5-40.4-36.2-54.3-59.9c2.8-4.2,7-8.4,11.2-12.5C1112.4,301,1120.7,309.4,1127.7,317.7z M1296.3,305.2
	c-13.9,22.3-34.8,40.4-53,58.5c26.5-1.4,53-11.1,76.6-22.3v20.9c-23.7,12.5-47.4,18.1-73.8,25.1c18.1,9.8,36.2,19.5,57.1,29.3
	c-1.4,5.6-5.6,11.2-9.8,15.3c-29.3-9.8-43.2-16.7-66.9-26.5c-1.4,39-2.8,73.8-7,111.5h-18.1c0-48.8,1.4-96.1,2.8-143.5v-4.2
	c0-1.4,20.9-18.1,30.6-26.5c29.2-25.1,34.8-33.4,50.2-51.6C1289.4,295.4,1293.5,301,1296.3,305.2L1296.3,305.2z M1095.7,131
	c8.4,0,15.3-7,15.3-15.3c0-7-7-13.9-15.3-13.9c-8.4,0-13.9,7-13.9,13.9C1081.7,124.1,1087.3,131,1095.7,131z M1294.9,132.4
	c8.4,0,15.3-7,15.3-15.3s-7-15.3-15.3-15.3c-8.4,0-15.4,7-15.4,15.3S1286.5,132.4,1294.9,132.4z"/>
<path class="st4" d="M1377.1,257.8c9.8-2.8,12.5-15.3,9.8-27.9c-4.2-13.9-15.3-22.3-23.7-19.5c-8.4,2.8-12.5,15.3-8.4,27.9
	C1359,252.2,1368.8,260.6,1377.1,257.8L1377.1,257.8z M1013.5,256.4c-9.8-2.8-12.5-15.3-9.8-27.9c4.2-13.9,15.3-22.3,23.7-19.5
	c8.4,2.8,12.5,15.3,8.4,27.9C1031.6,250.8,1021.8,259.2,1013.5,256.4L1013.5,256.4z"/>
<path class="st5" d="M1172.3,104.5l1.4,1.4c-13.9,7-26.5,12.5-39,22.3l-1.4,1.4c27.9-4.2,47.4-5.6,55.7-5.6v11.1
	c-20.1,1.4-40.2,4.2-59.9,8.4h2.8l40.4,19.5c-2.8,7-2.8,7-5.6,11.2c-16.7-7-29.3-11.2-48.8-16.7c-4.2,25.1-2.8,52.9-2.8,79.4
	c-2.8,1.4-7,2.8-12.5,4.2c-4.2-33.4-1.4-69.7,4.2-103.1c16.7-18.1,37.6-27.9,58.5-37.6C1169.5,103.2,1169.5,103.2,1172.3,104.5
	L1172.3,104.5z M1285.2,136.6c7,34.8,8.4,71.1,2.8,104.5c-4.2-1.4-7-1.4-12.5-4.2c4.2-29.3,4.2-54.3-1.4-80.8
	c-16.7,4.2-29.3,11.1-47.4,19.5c-2.8-4.2-4.2-5.6-7-11.1l43.2-22.3h-5.6c-16.7-4.2-34.8-5.6-53-7v-9.8c23.7,0,36.2,1.4,54.4,4.2
	c-11.2-11.1-26.5-16.7-39-23.7l5.6-5.6C1246.1,110.1,1268.5,118.5,1285.2,136.6L1285.2,136.6z M1098.4,140.8l-1.4,4.2
	c-5.6,33.4-5.6,66.9-2.8,98.9c-5.6,1.4-8.4,2.8-12.5,4.2v-2.8c-4.2-25.1-2.8-51.6-1.4-76.6c-15.3,12.5-26.5,27.9-37.6,41.8l-5.6-5.6
	c9.8-15.3,20.9-27.9,33.4-40.4l-8.4,4.2c-13.9,7-22.3,13.9-34.8,23.7c-1.4-2.8-2.8-4.2-2.8-8.4c13.9-15.3,36.2-29.3,48.8-34.8
	c-7-4.2-9.8-5.6-22.3-8.4c2.8-4.2,5.6-7,8.4-9.8c8.4,1.4,12.5,1.4,19.5,4.2L1098.4,140.8z M1340.9,142.2c-7,2.8-15.3,4.2-22.3,7
	c16.7,8.4,34.8,19.5,50.2,36.2c-1.4,2.8-1.4,4.2-2.8,7c-13.9-9.8-26.5-19.5-41.8-26.5c11.1,12.5,23.7,26.5,32,40.4
	c-2.8,1.4-2.8,1.4-4.2,2.8l-2.8,1.4c-11.1-13.9-23.7-29.3-36.2-41.8v46l-2.8,34.8c-5.6-1.4-8.4-2.8-12.5-4.2
	c2.8-33.4,1.4-71.1-1.4-104.5c16.7-4.2,23.7-5.6,36.2-7C1335.3,136.6,1338.1,138,1340.9,142.2L1340.9,142.2z M999.5,245.3
	c4.2,19.5-1.4,32-2.8,50.2c-1.4,9.8-1.4,16.7-1.4,26.5c1.4,1.4,2.8-8.4,2.8-13.9c1.4-12.5,1.4-30.6,7-34.8l41.8-8.4l15.3-1.4
	c1.4,5.6,1.4,9.8,1.4,15.3c-16.7,2.8-33.4,5.6-48.8,11.1c8.4,18.1,27.9,33.4,46,44.6v19.5c-18.1-8.4-29.3-18.1-41.8-29.3
	c4.2,18.1,15.3,36.2,23.7,54.3c-1.4,2.8-2.8,5.6-5.6,9.8c-11.1-13.9-20.9-30.6-26.5-47.4l-1.4-1.4c0,37.6,13.9,66.9,33.4,97.5v2.8
	l-1.4,1.4c-27.9-33.4-43.2-72.4-46-117c0,5.6-1.4,8.4-1.4,16.7c-8.4-39-5.6-86.4,7-122.6C999.5,231.3,996.7,236.9,999.5,245.3
	L999.5,245.3z M1403.6,305.2c0,15.3-2.8,25.1-4.2,36.2c0-9.8,0-12.5-2.8-19.5c-1.4,8.4,0,7,0,13.9c-4.2,40.4-19.5,76.6-47.4,107.3
	v-5.6c22.3-29.3,32-64.1,36.2-100.3c-4.2,8.4-7,15.3-11.1,23.7c-5.6,11.1-13.9,20.9-22.3,32c-2.8-5.6-4.2-5.6-7-9.8
	c9.8-16.7,23.7-39,29.3-57.1c-12.5,12.5-29.3,22.3-43.2,30.6v-20.9c16.7-11.2,37.6-25.1,47.4-44.6c-16.7-2.8-34.8-7-48.8-9.7
	c1.4-7,1.4-11.1,2.8-18.1l54.3,9.8c7,1.4,9.8,29.3,9.8,44.6c7-12.5-9.8-51.6-1.4-76.6c0-4.2-1.4-12.5-2.8-23.7
	C1402.2,236.9,1405,275.9,1403.6,305.2L1403.6,305.2z M1222.5,278.7c7,9.8,5.6,25.1,0,34.8c-8.4,11.1-20.9,18.1-34.8,13.9
	c-11.1-2.8-20.9-12.5-23.7-22.3c-2.8-13.9,0-26.5,11.1-34.8c8.4-5.6,19.5-9.8,30.6-5.6C1212.7,267.6,1218.3,273.2,1222.5,278.7
	L1222.5,278.7z M1129.1,316.3c16.7,18.1,39,34.8,58.5,50.2v11.1c1.4,50.2,1.4,92,1.4,137.9c-5.6,0-11.1,1.4-18.1,0
	c-1.4-33.4-4.2-75.2-5.6-111.5c-22.3,9.8-44.6,19.5-68.3,26.5c-2.8-5.6-5.6-9.8-9.8-15.3c20.9-11.1,41.8-18.1,57.1-29.3
	c-15.3-4.2-27.9-7-41.8-11.1c-12.5-4.2-20.9-8.4-33.4-13.9l1.4-19.5c23.7,8.4,50.2,19.5,78,22.3v-1.4c-19.5-19.5-39-36.2-54.3-59.9
	c4.2-4.2,8.4-8.4,11.2-12.5C1113.8,299.6,1120.7,308,1129.1,316.3L1129.1,316.3z M1297.7,303.8c-13.9,22.3-34.9,40.4-54.3,58.5
	c27.8-1.4,53-11.1,78-22.3v20.9c-23.7,12.5-47.4,18.1-73.9,25.1c18.1,9.8,36.2,19.5,57.1,29.3c-2.9,5.7-6.7,10.8-11.1,15.3
	c-27.9-9.8-41.8-16.7-65.5-26.5c-1.4,39-2.8,73.8-7,111.5h-19.5c1.4-48.8,1.4-96.1,4.2-143.5v-4.2c0-1.4,19.5-18.1,29.3-26.5
	c30.7-25.1,36.2-33.4,50.2-51.6C1290.8,294.1,1293.5,299.6,1297.7,303.8L1297.7,303.8z M1097.1,129.6c8.4,0,15.3-7,15.3-15.3
	c0-7-7-13.9-15.3-13.9c-8.4,0-15.3,7-15.3,13.9C1081.7,122.7,1088.7,129.6,1097.1,129.6z M1296.3,131c8.4,0,15.3-7,15.3-15.3
	c0-8.4-7-15.3-15.3-15.3c-8.4,0-15.3,7-15.3,15.3C1281.1,124.1,1287.9,130.9,1296.3,131z"/>
<path class="st5" d="M1378.5,256.4c8.4-2.8,12.5-15.3,8.4-27.9c-4.2-13.9-13.9-22.3-22.3-19.5c-8.4,2.8-12.5,15.3-8.4,27.9
	C1360.4,250.8,1370.2,259.2,1378.5,256.4z M1013.5,255c-8.4-2.8-12.5-15.3-8.4-27.9c4.2-13.9,13.9-22.3,22.3-19.5
	c9.8,2.8,12.5,15.3,9.8,27.9C1033,249.5,1023.2,257.8,1013.5,255L1013.5,255z"/>
<path class="st6" d="M1173.7,103.2l1.4,1.4c-13.9,7-26.5,12.5-39,22.3l-1.4,1.4c27.9-4.2,46-5.6,54.3-5.6c1.4,5.6,1.4,8.4,1.4,11.2
	c-19.5,1.4-41.8,4.2-59.9,8.4h2.8l40.4,19.5c-2.8,7-4.2,7-5.6,11.2c-18.1-7-29.3-11.2-48.8-16.7c-4.2,25.1-4.2,52.9-2.8,79.4
	l-12.5,4.2c-4.2-33.4-1.4-69.7,4.2-103.1c16.7-18.1,37.6-27.9,58.5-37.6C1170.9,101.8,1169.5,101.8,1173.7,103.2L1173.7,103.2z
	 M1286.5,135.2c5.6,34.8,8.4,71.1,2.8,104.5c-4.2-1.4-7-1.4-12.5-4.2c4.2-29.3,4.2-54.3-1.4-80.8c-16.7,4.2-30.7,11.2-48.8,19.5
	c-1.4-4.2-2.8-5.6-7-11.2l43.2-22.3h-4.2c-18.1-4.2-36.2-5.6-54.4-7c0-2.8,1.4-7,0-9.8c25.1,0,37.6,1.4,55.7,4.2
	c-12.6-11.1-26.5-16.7-39-23.7c2.8-2.8,2.8-4.2,5.6-5.6C1247.5,108.7,1269.8,117.1,1286.5,135.2L1286.5,135.2z M1098.4,139.4v4.2
	c-7,33.4-5.6,66.9-4.2,98.9c-4.2,1.4-7,2.8-11.1,4.2l-1.4-2.8c-2.8-25.1-1.4-51.6,0-76.6c-15.3,12.5-26.5,27.9-37.6,41.8l-5.6-5.6
	c8.4-15.3,20.9-27.9,32-40.4l-8.4,4.2c-12.5,7-22.3,13.9-34.8,23.7c0-2.8-1.4-4.2-2.8-8.4c15.3-15.3,37.6-29.3,50.2-34.8
	c-8.4-4.2-11.1-5.6-22.3-8.4c2.8-4.2,4.2-7,7-9.8c9.8,1.4,12.5,1.4,20.9,4.2L1098.4,139.4L1098.4,139.4z M1342.3,140.8
	c-8.4,2.8-15.3,4.2-22.3,7c15.3,8.4,34.8,19.5,50.2,36.2c-1.4,2.8-2.8,4.2-4.2,7c-12.5-9.8-26.5-19.5-40.4-26.5
	c11.1,12.5,23.7,26.5,32,40.4l-5.6,2.8l-1.4,1.4c-11.1-13.9-23.7-29.3-37.6-41.8c1.4,18.1,1.4,29.3,0,46l-2.8,34.8
	c-4.2-1.4-7-2.8-11.1-4.2c2.8-33.4,1.4-71.1-1.4-104.5c16.7-4.2,23.7-5.6,36.2-7C1336.7,135.2,1338.1,136.6,1342.3,140.8
	L1342.3,140.8z M999.5,243.9c5.6,19.5-1.4,32-1.4,50.2c-1.4,9.8-1.4,16.7-1.4,26.5c1.4,1.4,1.4-8.4,1.4-13.9
	c1.4-12.5,2.8-30.7,8.4-34.8c13.9-2.8,26.5-5.6,41.8-8.4l13.9-1.4c1.4,5.6,2.8,9.8,2.8,15.3c-16.7,2.8-33.4,5.6-48.8,11.1
	c8.4,18.1,27.9,33.4,44.6,44.6c1.4,8.4,0,12.5,0,18.1v1.4c-16.7-8.4-27.9-18.1-40.4-29.3c2.8,18.1,15.3,36.2,23.7,54.3
	c-1.4,2.8-2.8,5.6-5.6,9.8c-11.1-13.9-20.9-30.6-26.5-47.4l-1.4-1.4c0,37.6,13.9,66.9,32,97.5v4.2c-27.9-33.4-43.2-72.4-46-117
	c-1.4,5.6-1.4,8.4-1.4,16.7c-8.4-39-5.6-86.4,7-122.6C1000.9,230,996.7,235.5,999.5,243.9L999.5,243.9z M1405,303.8
	c0,15.3-2.8,25.1-5.6,36.2c1.4-9.8,0-12.5-1.4-19.5c-1.4,8.4,0,7-1.4,13.9c-2.8,40.4-19.5,76.6-46,107.3v-5.6
	c22.3-29.3,32-64.1,34.8-100.3c-2.8,8.4-7,15.3-9.8,23.7c-5.6,11.1-13.9,20.9-22.3,32c-4.2-5.6-5.6-5.6-7-9.8
	c9.8-16.7,23.7-37.6,29.3-57.1h-1.4c-11.1,12.5-27.9,22.3-41.8,30.7v-20.9c16.7-11.2,37.6-25.1,46-44.6c-16.7-2.8-33.4-7-47.4-9.8
	c0-7,1.4-11.1,2.8-18.1l54.3,9.8c7,1.4,8.4,29.3,9.8,44.6c7-12.5-9.8-51.6-2.8-76.6c1.4-4.2,0-12.5-2.8-23.7
	C1403.6,235.5,1406.4,274.5,1405,303.8L1405,303.8z M1222.5,277.3c8.4,9.8,7,25.1,0,34.8c-7,11.1-20.9,18.1-34.8,13.9
	c-9.8-2.8-19.5-12.5-22.3-22.3c-2.8-13.9,0-26.5,9.8-34.8c8.4-5.6,20.9-9.8,32-5.6C1214.1,266.2,1219.7,271.8,1222.5,277.3z
	 M1130.5,314.9c16.7,18.1,39,34.8,57.1,50.2l1.4,11.1c0,50.2,1.4,92,1.4,137.9c-5.6,0-11.1,1.4-18.1,0c-2.8-33.4-4.2-75.2-7-111.5
	c-20.9,9.8-44.6,19.5-66.9,26.5c-4.2-5.6-5.6-9.8-9.8-15.3c20.9-11.1,41.8-18.1,57.1-29.3c-15.3-4.2-27.9-7-41.8-11.1
	c-11.5-3.8-22.7-8.5-33.4-13.9V340c25.1,8.4,50.2,19.5,78,22.3l1.4-1.4c-19.5-19.5-40.4-36.2-54.3-59.9c4.2-4.2,8.4-8.4,11.1-12.5
	C1115.2,298.2,1122.1,306.6,1130.5,314.9z M1299.1,302.4c-13.9,22.3-34.9,41.8-54.3,58.5c26.5-1.4,53-11.1,76.6-22.3
	c1.4,1.4,0,7,1.4,9.8l-1.4,11.1c-23.7,12.5-47.4,18.1-73.9,25.1c19.5,11.1,37.6,19.5,58.5,29.3c-2.9,5.7-6.7,10.8-11.1,15.3
	c-29.3-9.8-41.8-16.7-65.5-26.5c-2.8,39-4.2,73.8-7,111.5H1203c0-48.8,1.4-96.1,2.8-143.5v-4.2c0-1.4,20.9-18.1,30.6-26.5
	c29.3-25.1,34.8-33.4,50.2-51.6C1290.8,292.6,1294.9,298.2,1299.1,302.4L1299.1,302.4z M1098.4,128.2c8.4,0,15.3-7,15.3-15.3
	c0-7-7-13.9-15.3-13.9c-8.4,0-15.3,7-15.3,13.9C1083.1,121.3,1090.1,128.2,1098.4,128.2z M1297.7,129.6c7,0,13.9-7,13.9-15.3
	s-7-15.3-13.9-15.3c-8.4,0-15.3,7-15.3,15.3S1289.4,129.6,1297.7,129.6z"/>
<path class="st6" d="M1379.9,255c8.4-2.8,12.5-15.3,8.4-27.9c-4.2-13.9-13.9-22.3-22.3-19.5c-9.8,2.8-12.5,15.3-9.8,27.9
	C1360.4,249.5,1371.6,257.8,1379.9,255L1379.9,255z M1014.9,253.6c-8.4-2.8-12.5-15.3-8.4-27.9c4.2-13.9,13.9-22.3,22.3-19.5
	c8.4,2.8,12.5,15.3,8.4,27.9C1034.4,248.1,1023.2,256.4,1014.9,253.6z"/>
<path class="st7" d="M1173.7,101.8l1.4,1.4c-12.5,7-25.1,12.5-37.6,22.3l-2.8,1.4c27.9-4.2,47.4-5.6,55.7-5.6
	c1.4,5.6,1.4,8.4,1.4,11.1c-19.5,1.4-41.8,4.2-59.9,8.4h2.8l39,19.5c-1.4,7-2.8,7-5.6,11.1c-16.7-7-29.3-11.1-48.8-16.7
	c-4.2,25.1-2.8,53-1.4,79.4l-12.5,4.2c-4.2-33.4-1.4-69.7,2.8-103.1c18.1-18.1,37.6-27.9,58.5-37.6
	C1170.9,100.4,1170.9,100.4,1173.7,101.8L1173.7,101.8z M1288,133.8c5.6,34.8,8.4,71.1,1.4,104.5c-4.2-1.4-5.6-1.4-11.2-4.2
	c2.8-29.3,2.8-54.3-2.8-80.8c-16.7,4.2-29.3,11.2-47.4,19.5c-1.4-4.2-2.8-5.6-7-11.2l43.2-22.3h-4.2c-18.1-4.2-36.2-5.6-54.4-7v-9.8
	c23.7,0,37.6,1.4,54.4,4.2c-11.2-11.1-25.1-16.7-39-23.7c2.8-2.8,4.2-4.2,7-5.6C1248.9,107.3,1269.8,115.7,1288,133.8L1288,133.8z
	 M1099.8,138l-1.4,4.2c-5.6,33.4-5.6,66.9-2.8,98.9l-12.5,4.2v-2.8c-2.8-25.1-1.4-51.6,0-76.6c-15.3,12.5-26.5,27.9-39,41.8
	c-1.4-2.8-4.2-4.2-4.2-5.6c8.4-15.3,20.9-27.9,32-40.4l-8.4,4.2c-13.9,7-22.3,13.9-34.8,23.7c0-2.8-1.4-4.2-2.8-8.4
	c15.3-15.3,36.2-29.3,50.2-34.8c-8.4-4.2-11.1-5.6-23.7-8.4c4.2-4.2,5.6-7,8.4-9.7c8.4,1.4,12.5,1.4,19.5,4.2L1099.8,138L1099.8,138
	z M1343.7,139.4c-8.4,2.8-16.7,4.2-22.3,7c15.3,8.4,34.8,19.5,48.8,36.2c-1.4,2.8-1.4,4.2-2.8,7c-13.9-9.8-26.5-19.5-40.4-26.5
	c9.8,12.5,23.7,26.5,32,40.4c-2.8,1.4-4.2,1.4-5.6,2.8l-2.8,1.4c-11.1-13.9-22.3-29.3-36.2-41.8v46l-2.8,34.8
	c-5.6-1.4-8.4-2.8-11.1-4.2c2.8-33.4,1.4-71.1-2.8-104.5c16.7-4.2,23.7-5.6,37.6-7L1343.7,139.4L1343.7,139.4z M1000.9,243.9
	c5.6,18.1-1.4,30.7-2.8,48.8c0,9.8,0,16.7-1.4,26.5c2.8,1.4,2.8-8.4,2.8-13.9c1.4-12.5,2.8-30.6,7-34.8c15.3-2.8,27.9-5.6,43.2-8.4
	l13.9-1.4c1.4,5.6,1.4,9.8,2.8,15.3c-16.7,2.8-33.4,5.6-50.2,11.2c8.4,18.1,29.3,33.4,46,44.6v19.5c-18.1-8.4-29.3-18.1-41.8-29.3
	c4.2,18.1,15.3,36.2,25.1,54.3c-2.8,2.8-4.2,5.6-7,9.8c-9.8-13.9-19.5-30.6-25.1-47.4l-1.4-1.4c-1.4,37.6,12.5,66.9,32,97.5v4.2
	c-29.3-33.4-43.2-72.4-46-117c-1.4,5.6-1.4,8.4-1.4,16.7c-8.4-39-7-86.4,5.6-122.6C1000.9,228.6,998.1,234.1,1000.9,243.9
	L1000.9,243.9z M1406.4,302.4c-1.4,15.3-2.8,25.1-5.6,36.2c0-9.7,0-12.5-2.8-19.5c0,8.4,1.4,7,0,13.9
	c-4.2,40.4-19.5,76.6-47.4,107.3l1.4-5.6c20.9-29.3,30.6-64.1,34.8-100.3c-2.8,8.4-7,15.3-11.1,23.7c-5.6,11.1-13.9,20.9-20.9,32
	c-4.2-5.6-5.6-5.6-7-9.8c9.8-16.7,22.3-37.6,29.3-57.1h-1.4c-12.5,12.5-27.9,22.3-41.8,30.7c-1.4-7-1.4-13.9-1.4-20.9
	c16.7-11.1,37.6-25.1,47.4-44.6c-16.7-2.8-33.4-7-47.4-9.8c0-7,1.4-11.2,1.4-18.1l55.7,9.8c7,1.4,8.4,29.2,9.8,44.6
	c7-12.5-9.8-51.6-2.8-76.6c0-4.2-1.4-12.5-2.8-23.7C1405,234.1,1406.4,273.2,1406.4,302.4L1406.4,302.4z M1223.9,275.9
	c7,9.8,5.6,25.1,0,34.8c-8.4,11.1-20.9,18.1-34.8,13.9c-9.8-2.8-20.9-12.5-22.3-22.3c-2.8-13.9,0-26.5,9.8-34.8
	c8.4-5.6,20.9-9.8,30.6-5.6C1214.1,264.8,1221.1,270.4,1223.9,275.9L1223.9,275.9z M1130.5,313.6c18.1,18.1,39,34.8,58.5,50.2v11.1
	c1.4,50.2,1.4,92,2.8,137.9c-5.6,0-12.5,1.4-19.5,0c-1.4-33.4-2.8-75.3-5.6-111.5c-20.9,9.8-44.6,19.5-66.9,26.5
	c-4.2-5.6-7-9.8-9.8-15.3c20.9-11.1,40.4-18.1,55.7-29.3c-13.9-4.2-27.9-7-40.4-11.1s-22.3-8.4-33.4-13.9v-19.5
	c25.1,8.4,50.2,19.5,78,22.3l1.4-1.4c-19.5-19.5-40.4-36.2-54.3-59.9c2.8-4.2,7-8.4,11.1-12.5
	C1115.2,296.8,1123.5,305.2,1130.5,313.6L1130.5,313.6z M1299.1,301c-13.9,22.3-34.9,41.8-53,58.5c26.5-1.4,53-11.1,76.6-22.3v20.9
	c-23.7,12.5-47.4,18.1-73.8,25.1c18.1,11.1,36.2,19.5,57.1,29.3c-1.4,5.6-5.6,11.1-9.8,15.3c-29.3-9.8-43.2-16.7-66.9-26.5
	c-1.4,39-2.8,73.8-5.6,111.5h-19.5c0-48.8,1.4-96.1,2.8-142.1v-5.6c0-1.4,20.9-18.1,30.7-26.5c29.3-25.1,34.8-33.4,50.2-51.6
	C1292.1,291.3,1296.3,296.8,1299.1,301L1299.1,301z M1098.4,126.8c8.4,0,15.3-7,15.3-15.3c0-7-7-13.9-15.3-13.9
	c-7,0-13.9,7-13.9,13.9C1084.5,119.9,1091.5,126.8,1098.4,126.8z M1297.7,128.2c8.4,0,15.3-7,15.3-15.3s-7-15.3-15.3-15.3
	c-8.4,0-15.3,7-15.3,15.3S1289.4,128.2,1297.7,128.2z"/>
<path class="st7" d="M1379.9,253.6c9.8-2.8,12.5-15.3,9.8-27.9c-4.2-13.9-13.9-22.3-23.7-19.5c-8.4,2.8-12.5,15.3-8.4,27.9
	C1361.8,248.1,1371.6,256.4,1379.9,253.6L1379.9,253.6z M1016.2,252.2c-8.4-2.8-12.5-15.3-8.4-27.9c2.8-13.9,13.9-22.3,22.3-19.5
	c8.4,2.8,12.5,15.3,8.4,27.9C1034.4,246.7,1024.6,255,1016.2,252.2z"/>
<path class="st8" d="M1175.1,100.4l1.4,1.4c-13.9,7-26.5,12.5-39,22.3l-1.4,1.4c27.9-4.2,47.4-5.6,55.7-5.6c0,5.6,0,8.4,1.4,11.1
	c-20.6,1.3-41.1,4.1-61.3,8.4h2.8l40.4,19.5c-2.8,7-2.8,7-5.6,11.1c-16.7-7-29.3-11.1-48.8-16.7c-4.2,25.1-2.8,53-2.8,79.4
	c-2.8,1.4-7,2.8-12.5,4.2c-2.8-34.4-1.4-69,4.2-103.1c16.7-18.1,37.6-27.9,58.5-37.6C1172.3,99,1172.3,99,1175.1,100.4L1175.1,100.4
	z M1288,132.4c7,34.8,8.4,71.1,2.8,105.9c-4.2-2.8-5.6-2.8-12.6-5.6c4.2-29.3,4.2-54.3-1.4-80.8c-16.7,4.2-29.3,11.1-47.4,19.5
	c-2.8-4.2-4.2-5.6-7-11.1l43.2-22.3h-5.6c-16.7-2.8-34.8-5.6-53-7v-9.7c23.7,0,36.2,1.4,54.4,4.2c-11.2-11.2-26.5-16.7-39-23.7
	l5.6-5.6C1248.9,105.9,1271.2,114.3,1288,132.4L1288,132.4z M1101.2,136.6l-1.4,4.2c-5.6,33.4-5.6,66.9-2.8,98.9
	c-5.6,1.4-8.4,2.8-12.5,4.2v-2.8c-2.8-25.1-2.8-51.6-1.4-76.6c-15.3,12.5-26.5,27.9-37.6,41.8l-5.6-5.6
	c9.8-15.3,20.9-27.9,33.4-40.4l-8.4,4.2c-13.9,7-22.3,13.9-34.8,23.7c-1.4-2.8-2.8-4.2-2.8-8.4c13.9-15.3,36.2-29.2,50.2-34.8
	c-8.4-4.2-11.1-5.6-23.7-8.4c2.8-4.2,5.6-7,8.4-9.8c8.4,1.4,12.5,1.4,19.5,4.2L1101.2,136.6L1101.2,136.6z M1345.1,138
	c-8.4,2.8-16.7,4.2-23.7,7c16.7,8.4,34.8,19.5,50.2,36.2c-1.4,2.8-1.4,4.2-2.8,7c-13.9-9.8-26.5-19.5-41.8-26.5
	c11.1,12.5,23.7,26.5,32,40.4c-1.4,1.4-2.8,1.4-4.2,2.8l-2.8,1.4c-11.1-13.9-23.7-29.3-36.2-41.8v46l-2.8,34.8
	c-5.6-1.4-8.4-2.8-12.5-4.2c2.8-33.4,2.8-71.1-1.4-104.5c16.7-4.2,23.7-5.6,36.2-7C1338.1,132.4,1340.9,133.8,1345.1,138L1345.1,138
	z M1002.3,241.1c5.6,19.5-1.4,32-2.8,50.2c-1.4,9.8-1.4,16.7-1.4,26.5c1.4,1.4,2.8-8.4,2.8-13.9c1.4-12.5,1.4-30.6,7-34.8
	c13.9-2.8,27.9-5.6,43.2-8.4l13.9-1.4c1.4,5.6,1.4,9.8,1.4,15.3c-16.7,2.8-33.4,5.6-48.8,11.1c8.4,18.1,29.3,33.4,46,44.6v19.5
	c-18.1-8.4-29.3-18.1-41.8-29.3c4.2,18.1,15.3,36.2,25.1,54.3c-2.8,2.8-4.2,5.6-7,9.8c-11.1-13.9-19.5-30.6-26.5-47.4l-1.4-1.4
	c0,37.6,13.9,66.9,33.4,97.5v2.8l-1.4,1.4c-27.9-33.4-41.8-72.4-44.6-117c-1.4,5.6-2.8,8.4-2.8,16.7c-8.4-39-5.6-86.4,7-122.6
	C1002.3,227.2,999.5,232.7,1002.3,241.1L1002.3,241.1z M1406.4,302.4c0,13.9-2.8,23.7-4.2,34.8c0-9.7,0-12.5-2.8-19.5v13.9
	c-4.2,40.4-19.5,76.6-47.4,107.3v-5.6c22.3-29.3,32-64.1,36.2-100.3c-4.2,8.4-7,15.3-11.1,23.7c-5.6,11.1-13.9,20.9-22.3,32
	c-2.8-4.2-4.2-5.6-7-9.8c9.8-16.7,23.7-37.6,29.3-57.1c-12.5,12.5-29.3,22.3-43.2,30.7v-20.9c16.7-11.1,37.6-25.1,47.4-44.6
	c-16.7-2.8-34.8-7-48.8-9.8c1.4-7,1.4-11.2,2.8-18.1l54.3,9.8c7,1.4,9.8,29.2,9.8,44.6c7-11.2-9.8-51.6-1.4-75.3
	c0-5.6-1.4-13.9-2.8-25.1C1405,232.7,1407.8,271.8,1406.4,302.4L1406.4,302.4z M1225.2,274.5c7,9.7,5.6,25.1,0,34.8
	c-8.4,11.2-20.9,18.1-34.8,13.9c-11.1-2.8-20.9-12.5-22.3-22.3c-4.2-13.9,0-26.5,9.8-34.8c8.4-5.6,20.9-9.8,30.6-5.6
	C1215.5,263.4,1221.1,269,1225.2,274.5z M1131.9,312.2c16.7,18.1,39,34.8,58.5,50.2v11.1c1.4,50.2,1.4,92,1.4,137.9
	c-5.6,0-11.1,1.4-18.1,0c-1.4-33.4-4.2-75.2-5.6-111.5c-22.3,9.8-44.6,19.5-68.3,26.5c-2.8-5.6-5.6-9.8-9.8-15.3
	c20.9-11.1,41.8-18.1,57.1-29.3c-15.3-4.2-27.9-7-41.8-11.1c-11.3-4.3-22.4-8.9-33.4-13.9l1.4-19.5c25.1,8.4,50.2,19.5,78,22.3v-1.4
	c-18.1-19.5-39-36.2-52.9-59.9c2.8-4.2,7-8.4,9.8-12.5C1116.6,295.4,1123.5,303.8,1131.9,312.2z M1300.5,299.6
	c-14,22.3-34.8,41.8-54.3,58.5c27.9-1.4,53-11.1,78-22.3v20.9c-23.7,12.5-47.4,18.1-73.8,25.1c18.1,11.1,36.2,19.5,57.1,29.3
	c-1.4,5.6-5.6,11.1-9.8,15.3c-29.3-9.8-43.2-16.7-66.9-26.5c-1.4,39-2.8,73.8-7,111.5h-19.5c1.4-48.8,1.4-96.1,4.2-142.1v-5.6
	c0-1.4,19.5-18.1,29.3-26.5c30.7-25.1,36.2-33.4,51.6-51.6C1293.5,289.9,1296.3,295.4,1300.5,299.6L1300.5,299.6z M1099.8,125.5
	c8.4,0,15.3-7,15.3-13.9c0-8.4-7-15.3-15.3-15.3c-8.4,0-15.3,7-15.3,15.3C1084.5,118.5,1091.5,125.5,1099.8,125.5z M1299.1,126.8
	c8.4,0,15.3-7,15.3-15.3s-7-15.3-15.3-15.3s-15.3,7-15.3,15.3S1290.8,126.8,1299.1,126.8z"/>
<path class="st8" d="M1381.3,252.2c8.4-2.8,12.5-15.3,8.4-27.9c-2.8-13.9-13.9-22.3-22.3-19.5c-8.4,2.8-12.5,15.3-8.4,27.9
	C1363.2,246.7,1372.9,255,1381.3,252.2z M1016.2,250.8c-8.4-2.8-12.5-15.3-8.4-27.9c4.2-13.9,13.9-22.3,23.7-19.5
	c8.4,2.8,12.5,15.3,8.4,27.9C1035.8,245.3,1026,253.6,1016.2,250.8z"/>
<path class="st9" d="M1176.5,99l1.4,1.4c-13.9,7-26.5,12.5-39,22.3l-1.4,1.4c27.9-4.2,46-5.6,54.3-5.6c1.4,5.6,1.4,8.4,1.4,11.1
	c-19.5,1.4-41.8,4.2-59.9,8.4h2.8l40.4,19.5c-2.8,7-4.2,7-5.6,11.1c-18.1-7-29.3-11.1-48.8-16.7c-4.2,25.1-4.2,52.9-2.8,79.4
	l-12.5,4.2c-4.2-33.4-1.4-69.7,4.2-103.1c16.7-18.1,37.6-27.9,58.5-37.6C1173.7,97.6,1172.3,97.6,1176.5,99L1176.5,99z M1289.4,131
	c5.6,34.8,8.4,71.1,2.8,105.9c-4.2-2.8-7-2.8-12.6-5.6c4.2-29.3,4.2-54.3-1.4-80.8c-16.7,4.2-30.6,11.1-48.8,19.5
	c-1.4-4.2-2.8-5.6-7-11.1l43.2-22.3h-4.2c-18.1-2.8-34.8-5.6-53-7c-1.4-2.8,0-7-1.4-9.7c25.1,0,37.6,1.4,55.7,4.2
	c-11.1-11.1-26.5-16.7-39-23.7c2.8-2.8,2.8-4.2,5.6-5.6C1250.3,104.5,1272.6,112.9,1289.4,131L1289.4,131z M1101.2,135.2v4.2
	c-7,33.4-5.6,66.9-4.2,98.9c-4.2,1.4-7,2.8-11.2,4.2l-1.4-2.8c-2.8-25.1-1.4-51.6,0-76.6c-15.3,12.5-26.5,27.9-37.6,41.8l-5.6-5.6
	c8.4-15.3,20.9-27.9,32-40.4l-7,4.2c-13.9,7-22.3,13.9-34.8,23.7c-1.4-2.8-2.8-4.2-4.2-8.4c15.3-15.3,37.6-29.3,50.2-34.8
	c-8.4-4.2-9.8-5.6-22.3-8.4c2.8-4.2,4.2-7,7-9.8c9.8,1.4,12.5,1.4,20.9,4.2L1101.2,135.2z M1345.1,136.6c-8.4,2.8-15.3,4.2-22.3,7
	c15.3,8.4,34.8,19.5,50.2,36.2c-1.4,2.8-2.8,4.2-4.2,7c-12.5-9.8-26.5-19.5-40.4-26.5c11.1,12.5,23.7,26.5,32,40.4
	c-2.8,1.4-2.8,1.4-4.2,2.8l-2.8,1.4c-11.1-13.9-23.7-29.3-37.6-41.8c1.4,18.1,1.4,30.7,1.4,46l-4.2,34.8c-4.2-1.4-7-2.8-11.1-4.2
	c2.8-33.4,1.4-71.1-1.4-104.5c16.7-2.8,23.7-5.6,36.2-7L1345.1,136.6L1345.1,136.6z M1002.3,241.1c5.6,18.1,0,30.7-1.4,48.8
	c-1.4,9.7-1.4,16.7-1.4,26.5c1.4,1.4,2.8-8.4,2.8-13.9c0-12.5,1.4-30.6,7-34.8c13.9-2.8,26.5-5.6,41.8-8.4l15.3-1.4
	c0,5.6,1.4,9.8,1.4,15.3c-16.7,2.8-33.4,5.6-48.8,11.1c8.4,18.1,27.9,33.4,44.6,44.6c1.4,8.4,0,12.5,0,19.5
	c-16.7-8.4-27.9-18.1-40.4-29.3c4.2,18.1,15.3,36.2,23.7,54.3c-1.4,2.8-2.8,5.6-5.6,9.8c-11.1-13.9-20.9-30.6-26.5-47.4l-1.4-1.4
	c0,37.6,13.9,66.9,32,97.5v4.2c-27.9-33.4-43.2-72.4-46-117c-1.4,5.6-1.4,8.4-1.4,16.7c-8.4-39-5.6-86.4,7-122.6
	C1003.7,225.8,1000.9,231.3,1002.3,241.1L1002.3,241.1z M1407.8,299.6c0,15.3-2.8,25.1-5.6,36.2c1.4-9.8,0-12.5-1.4-19.5
	c-1.4,8.4,0,7-1.4,13.9c-2.8,40.4-18.1,76.6-46,107.3V432c22.3-29.3,32-64.1,34.8-100.3c-2.8,8.4-7,15.3-9.8,23.7
	c-5.6,11.1-13.9,20.9-22.3,32c-4.2-4.2-4.2-5.6-7-9.8c9.8-16.7,23.7-37.6,29.3-57.1h-1.4c-11.1,12.5-27.9,22.3-41.8,30.6v-20.9
	c16.7-11.1,37.6-25.1,46-44.6c-16.7-2.8-33.4-7-47.4-9.8c1.4-7,1.4-11.1,2.8-18.1l54.3,9.8c7,1.4,8.4,29.3,9.8,44.6
	c7-12.6-9.8-51.6-2.8-75.3c1.4-5.6,0-13.9-1.4-25.1C1406.4,231.3,1409.2,270.4,1407.8,299.6L1407.8,299.6z M1226.6,273.2
	c7,9.7,5.6,25.1-1.4,34.8c-7,11.2-20.9,18.1-33.4,13.9c-11.1-2.8-20.9-12.5-23.7-22.3c-2.8-13.9,0-26.5,9.8-34.8
	c9.8-5.6,20.9-9.8,32-5.6C1216.9,262,1222.5,267.6,1226.6,273.2z M1133.3,310.8c16.7,18.1,39,34.8,57.1,50.2l1.4,11.1
	c0,50.2,1.4,92,1.4,137.9c-5.6,0-11.1,1.4-18.1,0c-1.4-33.4-4.2-73.8-5.6-111.5c-22.3,9.8-46,19.5-68.3,26.5
	c-4.2-5.6-5.6-9.8-9.7-15.3c20.9-11.1,41.8-18.1,57.1-29.3c-15.3-4.2-27.9-7-41.8-11.1c-11.5-3.8-22.7-8.5-33.4-13.9v-19.5
	c25.1,8.4,50.2,19.5,79.4,22.3v-1.4c-19.5-19.5-39-36.2-54.3-59.9c4.2-4.2,8.4-8.4,11.1-12.5C1118,294.1,1124.9,302.4,1133.3,310.8
	L1133.3,310.8z M1301.9,298.2c-13.9,22.3-34.8,41.8-54.4,58.5c26.5-1.4,53-11.1,78-22.3c0,1.4-1.4,7,0,9.8v11.1
	c-25.1,12.5-47.4,18.1-73.8,25.1c18.1,11.1,36.2,19.5,57.1,29.3c-2.8,5.6-7,11.1-11.1,15.3c-29.3-9.8-41.8-16.7-65.5-26.5
	c-2.8,39-4.2,73.8-7,111.5h-19.5c0-48.8,1.4-96.1,2.8-142.1v-5.6c0-1.4,20.9-18.1,30.6-26.5c29.3-25.1,34.8-33.4,50.2-51.6
	C1293.5,288.5,1297.7,294.1,1301.9,298.2L1301.9,298.2z M1101.2,124.1c8.4,0,15.3-7,15.3-13.9c0-8.4-7-15.3-15.3-15.3
	c-8.4,0-15.3,7-15.3,15.3C1085.9,117.1,1092.9,124.1,1101.2,124.1z M1300.5,125.5c8.4,0,13.9-7,13.9-15.3s-5.6-15.3-13.9-15.3
	s-15.3,7-15.3,15.3S1292.1,125.5,1300.5,125.5z"/>
<path class="st9" d="M1382.7,250.8c8.4-2.8,12.5-15.3,8.4-27.9c-4.2-13.9-13.9-22.3-22.3-19.5c-8.4,2.8-12.5,15.3-8.4,27.9
	C1363.2,245.3,1374.3,253.6,1382.7,250.8z M1017.6,249.5c-8.4-2.8-12.5-15.3-8.4-27.9c4.2-13.9,13.9-22.3,22.3-19.5
	c8.4,2.8,12.5,15.3,8.4,27.9C1037.1,243.9,1026,252.2,1017.6,249.5z"/>
<path class="st10" d="M1176.5,97.6l1.4,1.4c-12.5,7-25.1,12.5-37.6,22.3l-1.4,1.4c26.5-4.2,46-5.6,54.3-5.6
	c1.4,5.6,1.4,8.4,1.4,11.1c-19.5,1.4-41.8,4.2-59.9,8.4h2.8l39,19.5c-1.4,7-2.8,7-5.6,11.1c-16.7-7-29.3-11.1-48.8-16.7
	c-4.2,25.1-2.8,52.9-1.4,79.4l-12.5,4.2c-4.2-33.4-1.4-69.7,2.8-103.1c18.1-18.1,37.6-27.9,58.5-37.6
	C1175.1,96.2,1173.7,96.2,1176.5,97.6L1176.5,97.6z M1290.8,129.6c5.6,34.8,8.4,71.1,2.8,105.9c-4.2-2.8-7-2.8-12.5-5.6
	c4.2-29.3,2.8-54.3-1.4-80.8c-18.1,4.2-30.6,11.1-48.8,19.5c-1.4-4.2-2.8-5.6-7-11.1l43.2-22.3h-4.2c-18.1-2.8-36.2-5.6-54.3-7v-9.8
	c23.7,0,37.6,1.4,54.3,4.2c-11.1-11.1-25.1-16.7-39-23.7c2.8-2.8,4.2-4.2,7-5.6C1251.7,103.2,1274,111.5,1290.8,129.6L1290.8,129.6z
	 M1102.6,133.8v4.2c-7,33.4-5.6,66.9-4.2,98.9c-4.2,1.4-7,2.8-11.1,4.2l-1.4-2.8c-2.8-25.1-1.4-51.6,0-76.6
	c-15.3,12.5-26.5,27.9-39,41.8c-1.4-2.8-4.2-4.2-4.2-5.6c8.4-15.3,20.9-27.9,32-40.4l-8.4,4.2c-12.5,7-22.3,13.9-34.8,23.7
	c0-2.8-1.4-4.2-2.8-8.4c15.3-15.3,36.2-29.3,50.2-34.8c-8.4-4.2-11.1-5.6-23.7-8.4c4.2-4.2,5.6-7,8.4-9.8c8.4,1.4,12.5,1.4,19.5,4.2
	L1102.6,133.8L1102.6,133.8z M1346.5,135.2c-8.4,2.8-15.3,4.2-22.3,7c15.3,8.4,34.8,19.5,48.8,36.2c-1.4,2.8-1.4,4.2-2.8,7
	c-12.5-9.8-26.5-19.5-40.4-26.5c9.8,12.5,23.7,26.5,32,40.4c-2.8,1.4-4.2,1.4-5.6,2.8l-2.8,1.4c-11.1-13.9-22.3-29.3-36.2-41.8
	c0,18.1,1.4,30.7,0,46l-2.8,34.8c-4.2-1.4-8.4-2.8-11.1-4.2c2.8-33.4,1.4-71.1-2.8-104.5c18.1-2.8,23.7-5.6,37.6-7
	C1340.9,129.6,1342.3,131,1346.5,135.2L1346.5,135.2z M1003.7,239.7c5.6,18.1-1.4,30.7-2.8,48.8c0,9.7,0,16.7-1.4,26.5
	c2.8,1.4,2.8-8.4,2.8-13.9c1.4-12.5,2.8-30.6,7-34.8c15.3-2.8,27.9-5.6,43.2-8.4l13.9-1.4c1.4,5.6,1.4,9.8,2.8,15.3
	c-16.7,2.8-33.4,5.6-48.8,11.1c8.4,18.1,27.9,33.4,44.6,44.6c1.4,8.4,0,12.5,0,19.5c-18.1-8.4-29.3-18.1-40.4-29.3
	c2.8,18.1,13.9,36.2,23.7,54.3c-2.8,2.8-4.2,5.6-7,9.8c-9.8-13.9-19.5-30.6-25.1-47.4l-1.4-1.4c-1.4,37.6,12.5,66.9,32,97.5v4.2
	c-29.3-33.4-43.2-72.4-46-117c-1.4,5.6-1.4,8.4-1.4,16.7c-8.4-39-7-86.4,5.6-122.6C1005.1,224.4,1000.9,230,1003.7,239.7
	L1003.7,239.7z M1409.2,299.6c-1.4,13.9-2.8,23.7-5.6,34.8c0-9.8,0-12.5-2.8-19.5c0,8.4,1.4,7,0,13.9
	c-4.2,40.4-19.5,76.6-47.4,107.3l1.4-5.6c20.9-29.3,30.6-64.1,34.8-100.3c-2.8,8.4-7,15.3-11.1,23.7c-4.2,11.1-13.9,20.9-20.9,32
	c-4.2-4.2-5.6-5.6-7-9.8c9.8-16.7,22.3-37.6,29.3-57.1h-1.4c-12.5,12.5-27.9,22.3-41.8,30.6c-1.4-7-1.4-13.9-1.4-20.9
	c18.1-11.1,37.6-25.1,47.4-44.6c-16.7-2.8-33.4-7-47.4-9.7c0-7,1.4-11.2,1.4-18.1l55.7,9.8c7,1.4,8.4,29.3,9.8,44.6
	c7-11.2-9.8-51.6-2.8-75.3c0-5.6-1.4-13.9-2.8-25.1C1407.8,230,1409.2,269,1409.2,299.6L1409.2,299.6z M1226.6,271.8
	c7,9.8,5.6,25.1,0,34.8c-8.4,11.2-20.9,18.1-34.8,13.9c-9.8-2.8-19.5-12.5-22.3-22.3c-2.8-13.9,0-26.5,9.8-34.8
	c8.4-5.6,20.9-9.8,32-5.6C1216.9,260.6,1223.9,266.2,1226.6,271.8L1226.6,271.8z M1133.3,309.4c18.1,18.1,40.4,34.8,58.5,50.2v11.1
	c1.4,50.2,1.4,92,2.8,137.9c-5.6,0-11.1,1.4-19.5,0c-1.4-33.4-2.8-73.8-5.6-111.5c-20.9,9.8-44.6,19.5-66.9,26.5
	c-4.2-5.6-7-9.8-9.7-15.3c20.9-9.8,41.8-18.1,57.1-29.3c-15.3-4.2-27.9-7-41.8-11.1c-11.5-3.8-22.7-8.5-33.4-13.9v-19.5
	c25.1,8.4,50.2,19.5,78,22.3l1.4-1.4c-19.5-19.5-40.4-36.2-54.3-59.9c4.2-4.2,7-8.4,11.1-12.5C1118,292.6,1126.3,301,1133.3,309.4z
	 M1301.9,296.8c-12.5,22.3-34.8,41.8-53,58.5c26.5-1.4,53-11.1,76.6-22.3V354c-23.7,12.5-47.4,18.1-73.8,25.1
	c19.5,11.2,36.2,19.5,57.1,29.3c-1.4,5.6-5.6,11.1-9.8,15.3c-29.3-9.8-43.2-16.7-66.9-26.5c-1.4,39-2.8,73.8-5.6,111.5h-19.5
	c0-48.8,1.4-96.1,2.8-142.1v-5.6c0-1.4,20.9-18.1,30.7-26.5c29.2-25.1,34.8-33.4,50.2-51.6C1294.9,287.1,1299.1,292.6,1301.9,296.8z
	 M1102.6,122.7c7,0,13.9-7,13.9-13.9c0-8.4-7-15.3-13.9-15.3c-8.4,0-15.3,7-15.3,15.3C1087.3,115.7,1094.3,122.7,1102.6,122.7z
	 M1300.5,124.1c8.4,0,15.3-7,15.3-15.3s-7-15.3-15.3-15.3s-14,7-14,15.3S1292.1,124.1,1300.5,124.1z"/>
<path class="st10" d="M1384.1,249.5c8.4-2.8,12.5-15.3,8.4-27.9c-4.2-13.9-13.9-22.3-23.7-19.5c-8.4,2.8-12.5,15.3-8.4,27.9
	C1364.6,243.9,1374.3,252.2,1384.1,249.5z M1019,248.1c-8.4-2.8-12.5-15.3-8.4-27.9c2.8-13.9,13.9-22.3,22.3-19.5
	s12.5,15.3,8.4,27.9C1037.1,242.5,1027.4,250.8,1019,248.1z"/>
<path class="st11" d="M1177.9,96.2l1.4,1.4c-13.9,7-25.1,12.5-39,22.3l-1.4,1.4c27.9-4.2,47.4-5.6,55.7-5.6
	c1.4,5.6,1.4,8.4,1.4,11.1c-19.5,1.4-41.8,4.2-59.9,8.4h2.8l39,19.5c-2.8,7-2.8,7-5.6,11.2c-16.7-7-29.3-11.2-48.8-16.7
	c-4.2,25.1-2.8,53-1.4,79.4l-12.5,4.2c-4.2-33.4-1.4-69.7,2.8-103.1c18.1-18.1,37.6-27.9,58.5-37.6
	C1175.1,94.8,1175.1,94.8,1177.9,96.2L1177.9,96.2z M1290.8,128.2c7,34.8,8.4,71.1,2.8,105.9c-4.2-2.8-5.6-2.8-12.5-5.6
	c4.2-29.3,4.2-54.3-1.4-80.8c-16.7,4.2-29.2,11.2-47.4,19.5c-2.8-4.2-4.2-5.6-7-11.1l43.2-22.3h-4.2c-18.1-2.8-36.2-5.6-54.3-7v-9.8
	c23.7,0,36.2,1.4,54.3,4.2c-11.1-11.2-25.1-16.7-39-23.7l5.6-5.6C1251.7,101.8,1274,110.1,1290.8,128.2L1290.8,128.2z M1104,132.4
	l-1.4,4.2c-5.6,33.4-5.6,66.9-2.8,98.9c-5.6,1.4-8.4,2.8-12.5,4.2v-2.8c-2.8-25.1-2.8-51.6-1.4-76.6c-15.3,12.5-25.1,27.9-37.6,41.8
	l-5.6-5.6c9.8-15.3,20.9-27.9,33.4-40.4l-8.4,4.2c-13.9,7-22.3,13.9-34.8,23.7c-1.4-2.8-1.4-4.2-2.8-8.4
	c13.9-15.3,36.2-29.3,50.2-34.8c-8.4-4.2-11.1-5.6-23.7-8.4c2.8-4.2,5.6-7,8.4-9.8c8.4,1.4,12.5,2.8,19.5,4.2L1104,132.4L1104,132.4
	z M1347.9,133.8c-8.4,2.8-16.7,4.2-23.7,7c16.7,8.4,34.8,19.5,50.2,36.2c-1.4,2.8-1.4,4.2-2.8,7c-13.9-9.7-26.5-19.5-41.8-26.5
	c11.1,12.5,23.7,26.5,32,40.4c-1.4,1.4-2.8,1.4-4.2,2.8l-2.8,1.4c-11.1-13.9-23.7-29.3-36.2-41.8v46l-2.8,34.8
	c-5.6-1.4-8.4-2.8-12.5-4.2c2.8-33.4,2.8-71.1-1.4-104.5c16.7-2.8,23.7-5.6,36.2-7C1340.9,128.2,1343.7,129.6,1347.9,133.8
	L1347.9,133.8z M1005.1,238.3c5.6,18.1-1.4,30.7-2.8,48.8c0,9.8-1.4,16.7-1.4,26.5c2.8,2.8,2.8-8.4,2.8-13.9
	c1.4-12.5,1.4-30.6,7-34.8c13.9-2.8,27.9-5.6,43.2-8.4l13.9-1.4c1.4,5.6,1.4,9.8,2.8,15.3c-16.7,2.8-34.8,5.6-50.2,11.1
	c8.4,18.1,29.3,33.4,46,44.6v19.5c-18.1-8.4-29.3-18.1-41.8-29.3c4.2,18.1,15.3,36.2,25.1,54.3c-2.8,2.8-4.2,5.6-7,9.8
	c-11.1-13.9-19.5-30.6-25.1-47.4l-2.8-1.4c0,37.6,13.9,66.9,33.4,97.5v4.2c-29.3-33.4-43.2-72.4-46-117c-1.4,5.6-2.8,8.4-1.4,16.7
	c-9.8-39-7-86.4,5.6-122.6C1005.1,223,1002.3,228.6,1005.1,238.3L1005.1,238.3z M1409.2,298.2c0,13.9-1.4,23.7-4.2,34.8
	c0-9.8,0-12.5-2.8-19.5v13.9c-4.2,40.4-19.5,76.6-47.4,107.3v-5.6c22.3-29.3,32-62.7,36.2-100.3c-2.8,8.4-7,15.3-11.1,23.7
	c-5.6,11.1-13.9,20.9-22.3,32c-2.8-4.2-4.2-5.6-5.6-9.8c8.4-16.7,22.3-37.6,29.3-57.1h-1.4c-12.5,12.5-29.3,22.3-43.2,30.6v-20.9
	c16.7-11.2,37.6-25.1,47.4-44.6c-16.7-2.8-34.8-7-48.8-9.7c1.4-7,1.4-11.2,2.8-18.1l55.7,9.8c5.6,1.4,8.4,29.3,8.4,44.6
	c7-11.2-9.8-51.6-1.4-75.2c0-5.6-1.4-13.9-2.8-25.1C1407.8,228.6,1410.6,267.6,1409.2,298.2L1409.2,298.2z M1228,270.4
	c7,9.8,5.6,25.1,0,34.8c-8.4,11.1-20.9,18.1-34.8,13.9c-11.1-2.8-20.9-12.5-22.3-22.3c-4.2-13.9,0-26.5,9.8-34.8
	c8.4-5.6,20.9-9.8,30.6-5.6C1218.3,259.2,1225.2,264.8,1228,270.4z M1134.7,308c16.7,18.1,39,34.8,58.5,50.2v11.1
	c1.4,50.2,1.4,92,1.4,137.9c-5.6,0-11.1,1.4-18.1,0c-1.4-33.4-4.2-73.8-5.6-111.5c-22.3,9.8-44.6,19.5-68.3,26.5
	c-2.8-5.6-5.6-9.8-9.7-15.3c20.9-9.8,41.8-18.1,57.1-29.3c-13.9-4.2-27.9-7-40.4-11.1c-11.5-3.8-22.7-8.5-33.4-13.9v-19.5
	c25.1,8.4,50.2,19.5,78,22.3V354c-18.1-19.5-39-36.2-53-59.9c2.8-4.2,7-8.4,9.8-12.5C1119.4,291.3,1126.3,299.6,1134.7,308
	L1134.7,308z M1303.3,295.4c-13.9,22.3-34.8,41.8-54.3,58.5c27.9-1.4,54.3-11.1,78-22.3v20.9c-23.7,12.5-47.4,18.1-73.8,25.1
	c18.1,11.1,36.2,19.5,57.1,29.3c-1.4,5.6-5.6,11.1-9.8,15.3c-29.3-9.8-43.2-16.7-66.9-26.5c-1.4,39-2.8,73.8-7,111.5h-18.1
	c0-48.8,0-96.1,2.8-142.1v-5.6c0-1.4,19.5-18.1,29.3-26.5c30.6-25.1,36.2-33.4,51.6-51.6C1296.3,285.7,1299.1,291.3,1303.3,295.4
	L1303.3,295.4z M1102.6,121.3c8.4,0,15.3-7,15.3-13.9c0-8.4-7-15.3-15.3-15.3c-8.4,0-15.3,7-15.3,15.3
	C1087.3,114.3,1094.3,121.3,1102.6,121.3z M1301.9,122.7c8.4,0,15.3-7,15.3-15.3s-7-15.3-15.3-15.3s-15.4,7-15.4,15.3
	C1286.5,115.7,1293.5,122.7,1301.9,122.7z"/>
<path class="st11" d="M1384.1,248.1c8.4-2.8,12.5-15.3,8.4-27.9c-2.8-13.9-13.9-22.3-22.3-19.5c-8.4,2.8-12.5,15.3-8.4,27.9
	C1366,242.5,1375.7,250.8,1384.1,248.1z M1019,246.7c-8.4-2.8-11.1-15.3-8.4-27.9c4.2-13.9,13.9-22.3,23.7-19.5
	c8.4,2.8,12.5,15.3,8.4,27.9C1038.5,241.1,1028.8,249.5,1019,246.7z"/>
<path class="st12" d="M1179.3,94.8l1.4,1.4c-13.9,7-26.5,12.5-39,22.3l-1.4,1.4c27.9-4.2,46-5.6,55.7-5.6v11.2
	c-20.1,1.4-40.2,4.2-59.9,8.4h2.8l40.4,19.5c-2.8,7-4.2,7-5.6,11.2c-18.1-7-29.3-11.2-48.8-16.7c-4.2,25.1-4.2,53-2.8,79.4
	c-4.2,1.4-7,4.2-12.5,4.2c-4.2-33.4-1.4-69.7,4.2-103.1c16.7-18.1,37.6-27.9,58.5-37.6C1176.5,93.4,1175.1,93.4,1179.3,94.8
	L1179.3,94.8z M1292.1,126.8c5.6,34.8,8.4,71.1,2.8,105.9c-4.2-2.8-7-2.8-12.5-5.6c4.2-29.3,4.2-54.3-1.4-80.8
	c-16.7,4.2-30.7,11.2-48.8,19.5c-1.4-4.2-2.8-5.6-7-11.2l44.6-22.3h-5.6c-18.1-2.8-34.8-5.6-52.9-7c-1.4-2.8,0-7,0-9.8
	c23.7,0,36.2,1.4,54.4,4.2c-11.2-11.1-26.5-16.7-39-23.7l5.6-5.6C1253.1,100.4,1275.4,108.7,1292.1,126.8L1292.1,126.8z M1104,131
	v4.2c-5.6,33.4-5.6,66.9-2.8,98.9c-5.6,1.4-8.4,2.8-12.5,4.2l-1.4-2.8c-2.8-25.1-1.4-51.6,0-76.6c-15.3,12.5-26.5,27.9-37.6,41.8
	l-5.6-5.6c8.4-15.3,20.9-27.9,32-40.4l-7,4.2c-13.9,7-22.3,13.9-34.8,23.7c-1.4-2.8-2.8-4.2-4.2-8.4c15.3-15.3,37.6-29.3,50.2-34.8
	c-7-4.2-9.8-5.6-22.3-8.4c2.8-4.2,5.6-7,7-9.7c9.8,1.4,12.5,2.8,20.9,4.2L1104,131L1104,131z M1347.9,132.4
	c-8.4,2.8-15.3,4.2-22.3,7c16.7,8.4,34.8,19.5,50.2,36.2c-1.4,2.8-2.8,4.2-4.2,7c-12.5-9.8-26.5-19.5-40.4-26.5
	c11.1,12.5,23.7,26.5,32,40.4c-2.8,1.4-2.8,1.4-4.2,2.8l-2.8,1.4c-11.1-13.9-23.7-29.3-37.6-41.8c1.4,18.1,1.4,30.6,1.4,46
	l-2.8,34.8c-5.6-1.4-8.4-2.8-12.5-4.2c2.8-33.4,1.4-71.1-1.4-104.5c16.7-2.8,23.7-5.6,36.2-7L1347.9,132.4L1347.9,132.4z
	 M1005.1,236.9c5.6,18.1,0,30.6-1.4,48.8c-1.4,9.8-1.4,16.7-1.4,26.5c1.4,2.8,2.8-8.4,2.8-13.9c0-12.5,1.4-30.6,7-34.8
	c13.9-2.8,26.5-5.6,41.8-8.4l15.3-1.4c0,5.6,1.4,9.8,1.4,15.3c-16.7,2.8-33.4,5.6-48.8,11.1c8.4,18.1,27.9,33.4,46,44.6v19.5h-1.4
	c-16.7-8.4-27.9-18.1-40.4-29.3c4.2,18.1,15.3,36.2,23.7,54.3c-1.4,2.8-2.8,5.6-5.6,9.8c-11.1-13.9-20.9-30.6-26.5-47.4l-1.4-1.4
	c0,37.6,13.9,66.9,32,97.5l1.4,2.8l-1.4,1.4c-27.9-33.4-43.2-72.4-46-117c0,5.6-1.4,8.4-1.4,16.7c-8.4-39-5.6-86.4,7-122.6
	C1006.5,221.6,1003.7,227.2,1005.1,236.9L1005.1,236.9z M1410.6,296.8c0,13.9-2.8,23.7-4.2,34.8c0-9.8,0-12.5-2.8-19.5
	c-1.4,8.4,0,7-1.4,13.9c-2.8,40.4-18.1,76.6-46,107.3v-5.6c22.3-29.3,32-64.1,36.2-100.3c-4.2,8.4-8.4,15.3-11.1,23.7
	c-5.6,11.1-13.9,20.9-22.3,32c-2.8-4.2-4.2-5.6-7-9.8c9.8-16.7,23.7-37.6,29.3-57.1h-1.4c-11.1,12.5-27.9,22.3-41.8,30.7v-20.9
	c16.7-11.2,37.6-25.1,46-44.6c-15.3-2.8-33.4-7-47.4-9.8c1.4-7,1.4-11.2,2.8-18.1l54.3,9.8c7,1.4,8.4,29.3,9.8,44.6
	c7-11.1-9.8-51.6-2.8-75.2c1.4-5.6,0-13.9-1.4-25.1C1409.2,227.2,1412,266.2,1410.6,296.8L1410.6,296.8z M1229.4,269
	c7,9.8,5.6,25.1-1.4,34.8c-7,11.1-20.9,18.1-33.4,13.9c-11.1-2.8-20.9-12.5-23.7-22.3c-2.8-13.9,0-26.5,9.8-33.4
	c9.8-7,20.9-11.1,32-7C1219.7,257.8,1225.2,263.4,1229.4,269z M1136.1,306.6c16.7,18.1,39,34.8,57.1,50.2l1.4,11.1
	c0,50.2,1.4,92,1.4,137.9c-5.6,0-11.1,1.4-18.1,0c-1.4-33.4-4.2-73.8-5.6-111.5c-22.3,9.8-44.6,19.5-68.3,26.5
	c-4.2-5.6-5.6-9.8-9.8-15.3c20.9-9.8,41.8-18.1,57.1-29.3c-15.3-4.2-27.9-7-41.8-11.1c-12.5-4.2-20.9-8.4-33.4-13.9v-19.5
	c25.1,8.4,51.6,19.5,79.4,22.3v-1.4c-19.5-19.5-39-36.2-54.3-59.9c4.2-4.2,8.4-8.4,11.2-12.5
	C1120.7,289.9,1127.7,298.2,1136.1,306.6L1136.1,306.6z M1304.7,294.1c-13.9,22.3-34.9,41.8-54.3,58.5c26.5-1.4,53-11.1,78-22.3
	v20.9c-25.1,12.5-47.4,18.1-73.9,25.1c18.1,11.1,36.2,19.5,57.1,29.3c-2.8,5.6-7,11.1-11.1,15.3c-29.3-9.8-41.8-16.7-65.5-26.5
	c-2.8,39-4.2,73.8-7,111.5h-19.5c1.4-48.8,1.4-96.1,2.8-142.1c1.4-1.4,1.4-2.8,1.4-5.6c0-1.4,19.5-18.1,29.3-26.5
	c30.7-25.1,34.8-33.4,50.2-51.6C1296.3,284.3,1300.5,289.9,1304.7,294.1L1304.7,294.1z M1104,119.9c8.4,0,15.3-7,15.3-13.9
	c0-8.4-7-15.3-15.3-15.3s-15.3,7-15.3,15.3C1088.7,112.9,1095.7,119.9,1104,119.9z M1303.3,121.3c8.4,0,13.9-7,13.9-15.3
	s-5.6-15.3-13.9-15.3s-15.3,7-15.3,15.3S1294.9,121.3,1303.3,121.3z"/>
<path class="st12" d="M1385.5,246.7c8.4-2.8,12.5-15.3,8.4-27.9c-4.2-13.9-13.9-22.3-22.3-19.5c-8.4,2.8-12.5,15.3-8.4,27.9
	C1366,241.1,1377.1,249.5,1385.5,246.7z M1020.4,245.3c-8.4-2.8-12.5-15.3-8.4-27.9c4.2-13.9,13.9-22.3,22.3-19.5
	c9.8,2.8,12.5,15.3,9.8,29.3C1039.9,239.7,1028.8,248.1,1020.4,245.3L1020.4,245.3z"/>
<path class="st13" d="M1179.3,93.4l2.8,1.4c-13.9,7-26.5,12.5-39,22.3l-1.4,1.4c27.9-4.2,46-5.6,54.3-5.6c1.4,5.6,1.4,8.4,1.4,11.1
	c-19.5,1.4-41.8,4.2-59.9,8.4h2.8l39,19.5c-1.4,7-2.8,7-5.6,11.1c-16.7-7-27.9-11.1-47.4-16.7c-4.2,25.1-4.2,53-2.8,79.4
	c-4.2,1.4-8.4,4.2-12.5,4.2c-4.2-33.4-1.4-69.7,2.8-103.1c18.1-18.1,37.6-27.9,59.9-37.6C1177.9,92,1176.5,92,1179.3,93.4
	L1179.3,93.4z M1293.5,125.5c5.6,34.8,8.4,71.1,2.8,105.9c-4.2-2.8-7-2.8-12.5-5.6c4.2-29.3,2.8-54.3-1.4-80.8
	c-18.1,4.2-30.7,11.2-48.8,19.5c-1.4-4.2-2.8-5.6-7-11.2l43.2-22.3h-4.2c-18.1-2.8-36.2-5.6-54.4-7c0-2.8,1.4-7,0-9.8
	c23.7,0,37.6,1.4,54.4,4.2c-11.2-11.2-25.1-16.7-39-23.7c4.2-2.8,4.2-4.2,7-5.6C1254.5,99,1276.8,107.3,1293.5,125.5L1293.5,125.5z
	 M1105.4,129.6v4.2c-7,33.4-5.6,66.9-4.2,98.9c-4.2,1.4-7,2.8-11.1,4.2l-1.4-2.8c-2.8-25.1-1.4-51.6,0-76.6
	c-15.3,12.5-26.5,27.9-39,41.8c-1.4-2.8-4.2-4.2-4.2-5.6c8.4-15.3,20.9-27.9,32-40.4l-8.4,4.2c-12.5,7-22.3,13.9-34.8,23.7
	c0-2.8-1.4-4.2-2.8-8.4c15.3-15.3,36.2-29.3,50.2-34.8c-8.4-4.2-11.2-5.6-23.7-8.4c4.2-4.2,5.6-7,8.4-9.7c9.8,1.4,12.5,2.8,20.9,4.2
	L1105.4,129.6L1105.4,129.6z M1349.3,131c-8.4,2.8-15.3,4.2-22.3,7c15.3,8.4,34.8,19.5,50.2,36.2c-1.4,2.8-2.8,4.2-4.2,7
	c-12.5-9.8-26.5-19.5-40.4-26.5c9.8,12.5,23.7,26.5,32,40.4c-2.8,1.4-4.2,1.4-5.6,2.8l-2.8,1.4c-9.8-13.9-22.3-29.3-36.2-41.8
	c0,18.1,1.4,30.6,0,46l-2.8,34.8c-4.2-1.4-7-2.8-11.1-4.2c2.8-33.4,1.4-71.1-1.4-104.5c12.1-1.9,24.2-4.2,36.2-7L1349.3,131
	L1349.3,131z M1006.5,235.5c5.6,18.1-1.4,30.6-2.8,48.8c0,9.8,0,16.7-1.4,26.5c2.8,2.8,2.8-8.4,2.8-13.9c1.4-12.5,2.8-30.7,8.4-34.8
	c13.9-2.8,26.5-5.6,41.8-8.4l13.9-1.4c1.4,5.6,1.4,9.8,2.8,15.3c-16.7,2.8-33.4,5.6-48.8,11.2c8.4,18.1,27.9,33.4,44.6,44.6
	c1.4,8.4,0,12.5,0,19.5c-18.1-8.4-29.3-18.1-40.4-29.3c2.8,18.1,15.3,36.2,23.7,54.3c-2.8,2.8-4.2,5.6-7,9.8
	c-9.8-13.9-19.5-30.6-25.1-47.4l-1.4-1.4c0,37.6,12.5,66.9,32,97.5v4.2c-27.9-33.4-43.2-72.4-46-117c-1.4,7-1.4,8.4-1.4,16.7
	c-8.4-39-5.6-86.4,7-122.6C1007.9,220.2,1003.7,225.8,1006.5,235.5L1006.5,235.5z M1412,295.4c-1.4,13.9-2.8,23.7-5.6,34.8
	c0-9.7,0-12.5-2.8-19.5c0,8.4,1.4,7,0,13.9c-4.2,40.4-19.5,76.6-47.4,107.3l1.4-4.2c20.9-30.7,32-64.1,34.8-101.7
	c-2.9,8.3-6.6,16.2-11.1,23.7c-4.2,11.1-12.5,20.9-20.9,32c-4.2-4.2-5.6-5.6-7-9.8c9.8-16.7,23.7-37.6,29.3-57.1h-1.4
	c-12.5,12.5-27.9,22.3-41.8,30.7c0-7,0-13.9-1.4-20.9c18.1-11.1,39-25.1,47.4-44.6c-16.7-2.8-33.4-7-47.4-9.8c0-7,1.4-11.2,1.4-18.1
	l55.7,9.8c7,1.4,8.4,29.3,9.8,44.6c7-11.1-9.8-51.6-2.8-75.2c0-5.6-1.4-13.9-2.8-25.1C1410.6,225.8,1412,264.8,1412,295.4
	L1412,295.4z M1229.4,267.6c8.4,9.8,5.6,25.1,0,34.8c-8.4,11.2-20.9,18.1-34.8,13.9c-9.8-2.8-19.5-12.5-22.3-22.3
	c-2.8-13.9,0-26.5,9.8-33.4c8.4-7,20.9-11.1,32-7C1220.7,256.3,1226.1,261.3,1229.4,267.6z M1136.1,305.2
	c18.1,18.1,40.4,34.8,58.5,50.2v11.1c1.4,50.2,1.4,92,2.8,137.9c-5.6,0-11.1,1.4-19.5,0c-1.4-33.4-2.8-73.8-5.6-111.5
	c-20.9,9.8-44.6,19.5-66.9,26.5c-3.7-4.8-7-9.9-9.8-15.3c20.9-9.8,41.8-18.1,57.1-29.3c-15.3-4.2-27.9-7-41.8-11.1
	c-11.5-3.8-22.7-8.5-33.4-13.9v-19.5c25.1,8.4,50.2,19.5,78,22.3l1.4-1.4c-19.5-19.5-40.4-36.2-54.3-59.9c4.2-4.2,7-8.4,11.2-12.5
	C1122.1,288.5,1129.1,296.8,1136.1,305.2L1136.1,305.2z M1304.7,292.6c-12.5,22.3-34.9,41.8-53,58.5c26.5-1.4,53-11.2,76.6-22.3
	v20.9c-23.7,12.5-47.4,18.1-73.9,25.1c19.5,11.1,36.2,19.5,57.1,29.3c-1.4,5.6-5.6,11.1-9.8,15.3c-29.3-9.8-43.2-16.7-66.9-26.5
	c-1.4,39-2.8,73.8-5.6,111.5h-19.5c0-48.8,1.4-96.1,2.8-142.1v-5.6c0-1.4,20.9-16.7,30.7-26.5c29.3-25.1,34.8-33.4,50.2-51.6
	C1297.7,282.9,1301.9,288.5,1304.7,292.6L1304.7,292.6z M1105.4,118.5c8.4,0,13.9-7,13.9-13.9c0-8.4-5.6-15.3-13.9-15.3
	s-15.3,7-15.3,15.3C1090.1,111.5,1097.1,118.5,1105.4,118.5z M1303.3,119.9c8.4,0,15.3-7,15.3-15.3s-7-15.3-15.3-15.3
	s-13.9,7-13.9,15.3S1294.9,119.9,1303.3,119.9z"/>
<path class="st13" d="M1386.9,245.3c8.4-2.8,12.5-15.3,8.4-27.9c-4.2-13.9-13.9-22.3-23.7-19.5c-8.4,2.8-11.1,15.3-8.4,27.9
	C1367.4,239.7,1377.1,248.1,1386.9,245.3z M1021.8,243.9c-8.4-2.8-12.5-15.3-8.4-27.9c4.2-13.9,13.9-22.3,22.3-19.5
	s12.5,15.3,8.4,29.3C1039.9,238.3,1030.2,246.7,1021.8,243.9z"/>
<path class="st14" d="M1180.7,92l1.4,2.8c-13.9,5.6-25.1,11.1-39,20.9l-1.4,1.4c27.9-4.2,47.4-5.6,55.7-5.6
	c1.4,5.6,1.4,8.4,1.4,11.1c-19.5,1.4-41.8,4.2-59.9,8.4h2.8l39,19.5c-2.8,7-2.8,7-5.6,11.1c-16.7-7-29.3-11.1-48.8-16.7
	c-4.2,25.1-2.8,53-1.4,79.4c-4.2,2.8-8.4,4.2-12.5,4.2c-4.2-33.4-1.4-69.7,2.8-103.1c18.1-18.1,37.6-27.9,58.5-37.6
	C1177.9,90.6,1177.9,90.6,1180.7,92L1180.7,92z M1293.5,124.1c7,34.8,8.4,71.1,2.8,105.9c-4.2-2.8-5.6-2.8-12.5-5.6
	c4.2-29.3,4.2-54.3-1.4-80.8c-16.7,4.2-29.3,11.1-47.4,19.5c-2.8-4.2-2.8-5.6-7-11.1l43.2-22.3h-4.2c-18.1-2.8-36.2-5.6-54.4-7v-9.7
	c23.7,0,36.2,1.4,54.4,4.2c-11.2-11.2-25.1-16.7-39-23.7l5.6-5.6C1254.5,97.6,1276.8,105.9,1293.5,124.1L1293.5,124.1z
	 M1106.8,128.2l-1.4,4.2c-5.6,33.4-5.6,66.9-2.8,98.9l-12.5,4.2v-2.8c-2.8-25.1-1.4-51.6-1.4-76.6c-13.9,12.5-25.1,27.9-37.6,41.8
	l-5.6-5.6c9.8-15.3,22.3-27.9,33.4-40.4l-8.4,4.2c-13.9,7-22.3,13.9-34.8,23.7c0-2.8-1.4-4.2-2.8-8.4c13.9-15.3,36.2-29.3,50.2-34.8
	c-8.4-4.2-11.1-5.6-23.7-8.4c2.8-4.2,5.6-7,8.4-9.8c8.4,1.4,12.5,2.8,19.5,4.2L1106.8,128.2z M1350.7,129.6
	c-8.4,2.8-16.7,4.2-23.7,7c16.7,8.4,34.8,19.5,50.2,36.2c-1.4,2.8-1.4,4.2-2.8,7c-13.9-9.8-26.5-19.5-41.8-26.5
	c11.1,12.5,23.7,26.5,32,40.4c-1.4,1.4-2.8,1.4-4.2,2.8l-2.8,1.4c-11.1-13.9-22.3-29.3-36.2-41.8v46l-2.8,34.8
	c-5.6-1.4-8.4-2.8-11.1-4.2c1.4-33.4,1.4-71.1-2.8-104.5c12.1-1.9,24.2-4.3,36.2-7C1343.7,124.1,1346.5,125.5,1350.7,129.6
	L1350.7,129.6z M1007.9,234.1c5.6,18.1-1.4,30.7-2.8,48.8c0,9.8-1.4,16.7-1.4,26.5c2.8,2.8,2.8-8.4,2.8-13.9
	c1.4-12.5,2.8-30.6,7-34.8c13.9-2.8,27.9-5.6,43.2-8.4l13.9-1.4c1.4,5.6,1.4,9.8,2.8,15.3c-16.7,2.8-34.8,5.6-50.2,11.2
	c8.4,18.1,29.3,33.4,46,44.6v19.5c-18.1-8.4-29.3-18.1-41.8-29.3c4.2,18.1,15.3,36.2,25.1,54.3c-2.8,2.8-4.2,5.6-7,9.8
	c-11.1-13.9-19.5-30.6-25.1-47.4l-1.4-1.4c-1.4,37.6,12.5,66.9,32,97.5v4.2c-29.3-33.4-43.2-72.4-46-117c-1.4,7-1.4,8.4-1.4,16.7
	c-9.8-39-7-86.4,5.6-122.6C1007.9,218.8,1005.1,224.4,1007.9,234.1L1007.9,234.1z M1413.4,294.1c-1.4,13.9-2.8,23.7-5.6,34.8
	c0-9.8,0-12.5-2.8-19.5v13.9c-4.2,40.4-19.5,76.6-47.4,107.3v-4.2c22.3-30.7,32-64.1,36.2-101.7c-2.9,8.3-6.6,16.2-11.1,23.7
	c-5.6,11.1-13.9,20.9-20.9,32c-4.2-4.2-5.6-5.6-7-9.8c8.4-16.7,22.3-37.6,29.3-57.1h-1.4c-12.5,12.5-29.3,22.3-43.2,30.6v-20.9
	c16.7-11.1,37.6-25.1,47.4-44.6c-16.7-2.8-33.4-7-47.4-9.8c0-7,1.4-11.2,1.4-18.1l55.7,9.8c5.6,1.4,8.4,29.3,8.4,44.6
	c8.4-11.1-9.8-51.6-1.4-75.2c0-5.6-1.4-13.9-2.8-25.1C1410.6,224.4,1413.4,263.4,1413.4,294.1L1413.4,294.1z M1230.8,266.2
	c7,9.8,5.6,25.1,0,34.8c-8.4,11.2-20.9,18.1-34.8,13.9c-11.1-2.8-20.9-12.5-22.3-22.3c-2.8-13.9,0-26.5,9.8-33.4
	c8.4-7,20.9-11.1,30.6-7C1221.1,255,1228,260.6,1230.8,266.2L1230.8,266.2z M1137.5,303.8c16.7,18.1,39,34.8,58.5,50.2v11.1
	c1.4,50.2,1.4,92,2.8,137.9c-7,0-12.5,1.4-19.5,0c-1.4-33.4-4.2-73.8-5.6-111.5c-22.3,9.8-44.6,19.5-66.9,26.5
	c-3.7-4.8-7-9.9-9.8-15.3c19.5-9.8,40.4-18.1,55.7-29.3c-13.9-4.2-27.9-7-40.4-11.1c-12.5-4.2-22.3-8.4-33.4-13.9v-19.5
	c25.1,8.4,50.2,19.5,78,22.3l1.4-1.4c-19.5-19.5-40.4-36.2-54.3-59.9c2.8-4.2,7-8.4,11.1-12.5
	C1121.8,286.8,1129.3,295.6,1137.5,303.8z M1306.1,291.3c-13.9,22.3-34.9,41.8-53,58.5c26.5-1.4,53-11.2,76.6-22.3v20.9
	c-23.7,12.5-47.4,18.1-73.9,26.5c18.1,9.8,36.2,18.1,57.1,27.9c-1.4,5.6-5.6,11.1-9.8,15.3c-29.3-9.8-43.2-16.7-66.9-26.5
	c-1.4,39-2.8,73.8-7,111.5h-18.1c0-48.8,0-96.1,2.8-142.1v-5.6c0-1.4,20.9-16.7,30.7-26.5c29.3-25.1,34.8-33.4,50.2-51.6
	C1299.1,281.5,1303.3,287.1,1306.1,291.3L1306.1,291.3z M1105.4,117.1c8.4,0,15.3-5.6,15.3-13.9s-7-15.3-15.3-15.3
	s-13.9,7-13.9,15.3C1091.5,111.5,1097.1,117.1,1105.4,117.1z M1304.7,118.5c8.4,0,15.3-7,15.3-15.3c0-8.4-7-15.3-15.3-15.3
	s-15.3,7-15.3,15.3S1296.3,118.5,1304.7,118.5z"/>
<path class="st14" d="M1386.9,243.9c9.8-2.8,12.5-15.3,9.8-27.9c-4.2-13.9-15.3-22.3-23.7-19.5s-12.5,15.3-8.4,27.9
	C1368.8,238.3,1378.5,246.7,1386.9,243.9L1386.9,243.9z M1023.2,242.5c-9.8-2.8-12.5-15.3-9.8-27.9c4.2-13.9,15.3-22.3,23.7-19.5
	s12.5,15.3,8.4,29.3C1041.3,236.9,1031.6,245.3,1023.2,242.5L1023.2,242.5z"/>
<path class="st15" d="M1182.1,90.6l1.4,2.8c-13.9,5.6-26.5,11.1-39,20.9l-1.4,1.4c27.9-4.2,46-5.6,55.7-5.6v11.2
	c-20.1,1.4-40.2,4.2-59.9,8.4h2.8l40.4,19.5c-2.8,7-4.2,7-5.6,11.1c-16.7-7-29.3-11.1-48.8-16.7c-4.2,25.1-2.8,53-2.8,79.4
	c-2.8,1.4-7,4.2-12.5,4.2c-4.2-33.4-1.4-69.7,4.2-103.1c16.7-18.1,37.6-27.9,58.5-37.6C1179.3,89.2,1179.3,89.2,1182.1,90.6
	L1182.1,90.6z M1294.9,122.7c5.6,34.8,8.4,71.1,2.8,105.9c-4.2-2.8-7-2.8-12.5-5.6c4.2-29.3,4.2-54.3-1.4-80.8
	c-16.7,4.2-29.3,11.1-48.8,19.5c-1.4-4.2-2.8-5.6-5.6-11.1l43.2-22.3h-5.6c-18.1-2.8-34.8-5.6-53-7c-1.4-2.8,0-7,0-9.8
	c23.7,0,36.2,1.4,54.4,4.2c-11.2-11.2-26.5-16.7-39-23.7l5.6-5.6C1255.9,96.2,1278.2,104.5,1294.9,122.7L1294.9,122.7z
	 M1108.2,126.8l-1.4,4.2c-5.6,33.4-5.6,66.9-2.8,98.9c-5.6,1.4-8.4,2.8-12.5,4.2v-2.8c-4.2-25.1-2.8-51.6-1.4-76.6
	c-15.3,12.5-26.5,27.9-37.6,41.8l-5.6-5.6c9.8-15.3,20.9-27.9,32-40.4l-7,4.2c-13.9,7-22.3,13.9-34.8,23.7c-1.4-2.8-2.8-4.2-2.8-8.4
	c13.9-15.3,36.2-29.3,48.8-34.8c-7-4.2-9.8-5.6-22.3-8.4c2.8-4.2,5.6-7,7-9.8c9.8,1.4,13.9,2.8,20.9,4.2L1108.2,126.8z
	 M1350.7,128.2c-8.4,2.8-15.3,4.2-22.3,7c16.7,8.4,34.8,19.5,50.2,36.2c-1.4,2.8-1.4,4.2-2.8,7c-13.9-9.8-27.9-19.5-41.8-26.5
	c11.1,12.5,23.7,26.5,32,40.4c-2.8,1.4-2.8,1.4-4.2,2.8l-2.8,1.4c-11.1-13.9-23.7-29.3-37.6-41.8c1.4,18.1,1.4,30.7,1.4,46
	l-2.8,34.8c-5.6-1.4-8.4-2.8-12.5-4.2c2.8-33.4,1.4-71.1-1.4-104.5c12.1-1.9,24.2-4.3,36.2-7L1350.7,128.2L1350.7,128.2z
	 M1009.3,232.7c4.2,18.1-1.4,30.6-2.8,48.8c-1.4,9.7-1.4,16.7-1.4,26.5c1.4,2.8,2.8-8.4,2.8-13.9c1.4-12.5,1.4-30.7,7-34.8
	c13.9-2.8,26.5-5.6,41.8-8.4l15.3-1.4c1.4,5.6,1.4,9.8,1.4,15.3c-16.7,2.8-33.4,5.6-48.8,11.1c8.4,18.1,27.9,33.4,46,44.6V340
	c-18.1-8.4-29.3-18.1-41.8-29.2c4.2,19.5,15.3,36.2,23.7,54.3c-1.4,2.8-2.8,5.6-5.6,9.8c-11.1-13.9-20.9-30.6-26.5-47.4l-1.4-1.4
	c0,37.6,13.9,66.9,32,97.5l1.4,2.8l-1.4,1.4c-27.9-33.4-43.2-72.4-46-117c0,7-1.4,8.4-1.4,16.7c-8.4-39-5.6-86.4,7-122.6
	C1009.3,217.4,1006.5,223,1009.3,232.7L1009.3,232.7z M1413.4,292.6c0,13.9-2.8,23.7-4.2,34.8c0-9.8,0-12.5-2.8-19.5
	c-1.4,8.4,0,7,0,13.9c-4.2,40.4-19.5,76.6-47.4,107.3V425c22.3-30.7,32-64.1,36.2-101.7c-4.2,8.4-7,16.7-11.1,23.7
	c-5.6,11.1-13.9,20.9-22.3,32c-2.8-4.2-4.2-5.6-7-9.8c9.8-16.7,23.7-37.6,29.3-57.1h-1.4c-11.1,12.5-27.9,22.3-41.8,30.6v-20.9
	c16.7-11.1,37.6-25.1,46-44.6c-15.3-2.8-33.4-7-47.4-9.8c1.4-7,1.4-11.1,2.8-18.1l54.3,9.8c7,1.4,8.4,29.3,9.8,44.6
	c7-11.2-9.8-51.6-2.8-75.2c1.4-5.6,0-13.9-1.4-25.1C1412,223,1414.7,262,1413.4,292.6L1413.4,292.6z M1232.2,264.8
	c7,9.8,5.6,25.1-1.4,34.8c-7,11.2-20.9,18.1-33.4,13.9c-11.1-2.8-20.9-12.5-23.7-22.3c-2.8-13.9,0-26.5,9.8-33.4
	c9.8-7,20.9-11.1,32-7C1222.5,253.6,1228,259.2,1232.2,264.8L1232.2,264.8z M1138.9,302.4c16.7,18.1,39,34.8,58.5,50.2v11.1
	c1.4,50.2,1.4,92,1.4,137.9c-5.6,0-11.1,1.4-18.1,0c-1.4-33.4-4.2-73.8-5.6-111.5c-22.3,9.7-44.6,19.5-68.3,26.5
	c-2.8-5.6-5.6-9.8-9.8-15.3c20.9-9.8,41.8-18.1,57.1-29.3c-15.3-4.2-27.9-7-41.8-11.1c-12.5-4.2-20.9-8.4-33.4-13.9v-19.5
	c25.1,8.4,51.6,19.5,79.4,22.3v-1.4c-19.5-19.5-39-36.2-54.3-59.9c4.2-4.2,8.4-8.4,11.1-12.5
	C1123.5,285.7,1130.5,294.1,1138.9,302.4L1138.9,302.4z M1307.5,289.9c-13.9,22.3-34.8,41.8-54.3,58.5c27.9-1.4,53-11.2,78-22.3V347
	c-23.7,12.5-47.4,18.1-73.8,26.5c18.1,9.8,36.2,18.1,57.1,27.9c-2.8,5.6-7,11.1-11.1,15.3c-29.3-9.8-41.8-15.3-65.5-26.5
	c-1.4,39-2.8,73.8-7,111.5h-19.5c1.4-48.8,1.4-96.1,2.8-142.1c1.4-1.4,1.4-2.8,1.4-5.6c0-1.4,19.5-16.7,29.3-26.5
	c30.7-25.1,36.2-33.4,50.2-51.6C1299.1,280.1,1303.3,285.7,1307.5,289.9L1307.5,289.9z M1106.8,115.7c8.4,0,15.3-5.6,15.3-13.9
	s-7-15.3-15.3-15.3s-15.3,7-15.3,15.3C1091.5,110.1,1098.4,115.7,1106.8,115.7z M1306.1,117.1c8.4,0,15.3-7,15.3-15.3
	s-7-15.3-15.3-15.3s-15.3,7-15.3,15.3S1297.7,117.1,1306.1,117.1z"/>
<path class="st15" d="M1388.3,242.5c8.4-2.8,12.5-15.3,8.4-27.9c-4.2-13.9-13.9-22.3-22.3-19.5s-12.5,15.3-8.4,27.9
	C1370.2,236.9,1379.9,245.3,1388.3,242.5z M1023.2,241.1c-8.4-2.8-12.5-15.3-8.4-27.9c4.2-13.9,13.9-22.3,22.3-19.5
	c9.8,2.8,12.5,15.3,9.8,29.3C1042.7,235.5,1031.6,243.9,1023.2,241.1L1023.2,241.1z"/>
<path class="st16" d="M1183.5,89.2l1.4,2.8c-13.9,5.6-26.5,11.1-39,20.9l-1.4,1.4c27.9-4.2,46-5.6,54.3-5.6
	c1.4,5.6,1.4,8.4,1.4,11.1c-19.5,1.4-41.8,4.2-59.9,8.4h2.8l40.4,19.5c-2.8,7-4.2,7-7,11.2c-16.7-7-27.9-11.2-47.4-16.7
	c-4.2,25.1-4.2,53-2.8,79.4c-4.2,2.8-8.4,4.2-12.5,4.2c-4.2-33.4-1.4-69.7,2.8-103.1c18.1-18.1,39-27.9,59.9-37.6
	C1180.7,87.8,1179.3,87.8,1183.5,89.2L1183.5,89.2z M1296.3,121.3c5.6,34.8,8.4,71.1,2.8,105.9c-4.2-2.8-7-2.8-12.6-5.6
	c4.2-29.3,2.8-54.3-1.4-80.8c-18.1,4.2-30.7,11.2-48.8,19.5c-1.4-4.2-2.8-5.6-7-11.1l43.2-22.3h-4.2c-18.1-2.8-36.2-5.6-54.4-7
	c0-2.8,1.4-7,0-9.8c23.7,0,37.6,1.4,55.7,4.2c-12.5-11.1-26.5-16.7-39-23.7c2.8-2.8,2.8-4.2,5.6-5.6
	C1257.3,94.8,1279.6,103.2,1296.3,121.3L1296.3,121.3z M1108.2,125.5v4.2c-7,33.4-5.6,66.9-4.2,98.9c-4.2,1.4-7,2.8-11.1,4.2
	l-1.4-2.8c-2.8-25.1-1.4-51.6,0-76.6c-15.3,12.5-26.5,27.9-37.6,41.8l-5.6-5.6c8.4-15.3,20.9-27.9,32-40.4l-8.4,4.2
	c-12.5,7-22.3,13.9-34.8,23.7c0-2.8-1.4-4.2-2.8-7c15.3-16.7,37.6-30.7,50.2-36.2c-8.4-4.2-11.2-5.6-22.3-8.4c2.8-4.2,4.2-7,7-9.8
	c9.8,1.4,12.5,2.8,20.9,4.2L1108.2,125.5L1108.2,125.5z M1352,126.8c-8.4,2.8-15.3,4.2-22.3,7c15.3,8.4,34.8,19.5,50.2,36.2
	c-1.4,2.8-2.8,4.2-4.2,7c-12.5-9.7-26.5-19.5-40.4-26.5c9.8,12.5,23.7,26.5,32,40.4l-5.6,2.8l-1.4,1.4
	c-11.1-13.9-23.7-29.3-37.6-41.8c1.4,18.1,1.4,30.6,0,46l-2.8,34.8c-4.2-1.4-7-2.8-11.1-4.2c2.8-33.4,1.4-71.1-1.4-104.5
	c12.1-1.9,24.2-4.3,36.2-7C1346.5,121.3,1347.9,122.7,1352,126.8L1352,126.8z M1009.3,231.3c5.6,18.1-1.4,30.6-2.8,48.8v26.5
	c1.4,2.8,1.4-8.4,1.4-13.9c1.4-12.5,2.8-30.6,8.4-34.8c13.9-2.8,26.5-5.6,41.8-8.4l13.9-1.4c1.4,5.6,1.4,9.8,2.8,15.3
	c-16.7,2.8-33.4,5.6-48.8,11.2c8.4,18.1,27.9,33.4,44.6,44.6c1.4,8.4,0,12.5,0,19.5v1.4c-16.7-9.8-29.3-19.5-40.4-30.6
	c2.8,19.5,15.3,36.2,23.7,54.3c-2.8,2.8-2.8,5.6-7,9.8c-9.8-13.9-19.5-30.6-25.1-47.4l-1.4-1.4c0,37.6,13.9,66.9,32,97.5v4.2
	c-27.9-33.4-43.2-72.4-46-117c-1.4,7-1.4,8.4-1.4,16.7c-8.4-39-5.6-86.4,7-122.6C1010.7,216,1006.5,221.6,1009.3,231.3L1009.3,231.3
	z M1414.7,291.3c-1.4,13.9-2.8,23.7-5.6,34.8c1.4-9.8,0-12.5-1.4-19.5c-1.4,8.4,0,7-1.4,13.9c-2.8,40.4-19.5,76.6-46,107.3v-4.2
	c22.3-30.6,32-64.1,34.8-101.7c-2.8,8.4-7,16.7-9.8,23.7c-5.6,11.1-13.9,20.9-22.3,32c-4.2-4.2-5.6-5.6-7-9.8
	c9.8-16.7,23.7-37.6,29.3-57.1h-1.4c-12.5,12.5-27.9,22.3-41.8,30.6c0-5.6,0-13.9-1.4-20.9c18.1-11.2,39-25.1,47.4-44.6
	c-16.7-2.8-33.4-7-47.4-9.8c0-7,1.4-11.1,2.8-18.1l54.3,9.8c7,1.4,8.4,29.3,9.8,44.6c7-11.2-9.8-51.6-2.8-75.2
	c0-5.6-1.4-13.9-2.8-25.1C1413.4,221.6,1414.7,260.6,1414.7,291.3L1414.7,291.3z M1232.2,263.4c8.4,9.8,5.6,25.1,0,34.8
	c-8.4,11.2-20.9,18.1-34.8,13.9c-9.8-2.8-19.5-12.6-22.3-22.3c-2.8-13.9,0-26.5,9.8-33.4c8.4-7,20.9-11.1,32-7
	C1223.9,252.2,1229.4,257.8,1232.2,263.4z M1140.2,301c16.7,18.1,39,34.8,57.1,50.2l1.4,11.1c0,50.2,1.4,92,1.4,137.9
	c-5.6,0-11.1,1.4-18.1,0c-2.8-33.4-4.2-73.8-7-111.5c-20.9,9.8-44.6,19.5-66.9,26.5c-4.2-5.6-7-9.8-9.8-15.3
	c20.9-9.7,41.8-18.1,57.1-29.3c-15.3-4.2-27.9-7-41.8-11.1c-11.5-3.8-22.7-8.5-33.4-13.9v-19.5c25.1,8.4,50.2,19.5,78,22.3l1.4-1.4
	c-19.5-19.5-40.4-36.2-54.3-59.9c4.2-4.2,7-8.4,11.1-12.5C1124.9,284.3,1131.9,292.6,1140.2,301z M1308.9,288.5
	c-13.9,22.3-34.8,41.8-54.4,58.5c26.5-1.4,53-11.1,76.7-22.3v20.9c-23.7,12.5-47.4,18.1-73.8,26.5c19.5,9.8,36.2,18.1,57.1,27.9
	c-1.4,5.6-5.6,11.1-9.8,15.3c-29.3-9.8-43.2-15.3-66.9-26.5c-1.4,39-2.8,73.8-5.6,111.5h-19.5c0-48.8,1.4-96.1,2.8-142.1v-5.6
	c0-1.4,20.9-16.7,30.7-26.5c29.3-25.1,34.8-33.4,50.2-51.6C1300.5,278.7,1304.7,284.3,1308.9,288.5L1308.9,288.5z M1108.2,114.3
	c8.4,0,13.9-5.6,13.9-13.9s-5.6-15.3-13.9-15.3c-8.4,0-15.3,7-15.3,15.3C1092.9,108.7,1099.8,114.3,1108.2,114.3z M1306.1,115.7
	c8.4,0,15.3-7,15.3-15.3s-7-15.3-15.3-15.3c-7,0-13.9,7-13.9,15.3S1299.1,115.7,1306.1,115.7z"/>
<path class="st16" d="M1389.7,241.1c8.4-2.8,12.5-15.3,8.4-27.9c-4.2-13.9-13.9-22.3-22.3-19.5c-9.8,2.8-12.5,15.3-9.8,27.9
	C1370.2,235.5,1381.3,243.9,1389.7,241.1L1389.7,241.1z M1024.6,239.7c-8.4-1.4-12.5-15.3-8.4-27.9c4.2-13.9,13.9-22.3,22.3-19.5
	s12.5,15.3,8.4,29.3C1042.7,234.1,1033,242.5,1024.6,239.7z"/>
<path class="st17" d="M1183.5,87.8l1.4,2.8c-12.5,5.6-25.1,11.1-37.6,20.9l-2.8,1.4c27.9-4.2,47.4-5.6,55.7-5.6
	c1.4,5.6,1.4,8.4,1.4,11.2c-19.5,1.4-41.8,4.2-59.9,8.4h2.8l39,19.5c-1.4,7-2.8,7-5.6,11.2c-16.7-7-29.3-11.2-48.8-16.7
	c-4.2,25.1-2.8,53-1.4,79.4c-4.2,2.8-8.4,4.2-12.5,4.2c-4.2-33.4-1.4-69.7,2.8-103.1c18.1-18.1,37.6-27.9,58.5-37.6
	C1180.7,86.4,1180.7,86.4,1183.5,87.8L1183.5,87.8z M1297.7,121.3c5.6,33.4,8.4,69.7,1.4,104.5c-4.2-1.4-5.6-2.8-11.1-4.2
	c2.8-30.6,2.8-55.7-2.8-82.2c-16.7,4.2-29.3,11.2-47.4,19.5c-2.8-4.2-2.8-5.6-7-11.2l43.2-22.3h-4.2c-18.1-2.8-36.2-5.6-54.3-7v-9.8
	c23.7,0,36.2,1.4,54.3,4.2c-11.1-11.2-25.1-16.7-39-23.7c2.8-2.8,4.2-4.2,7-5.6C1258.7,93.4,1279.6,101.8,1297.7,121.3L1297.7,121.3
	z M1109.6,124.1l-1.4,4.2c-5.6,33.4-5.6,66.9-2.8,98.9l-12.5,4.2v-2.8c-2.8-25.1-1.4-51.6-1.4-76.6c-13.9,12.5-25.1,27.9-37.6,41.8
	l-5.6-5.6c9.8-15.3,22.3-27.9,33.4-40.4l-8.4,4.2c-13.9,7-22.3,13.9-34.8,23.7c0-2.8-1.4-4.2-2.8-7c15.3-16.7,36.2-29.3,50.2-36.2
	c-8.4-4.2-11.1-4.2-23.7-7c2.8-5.6,5.6-8.4,8.4-11.2c8.4,1.4,12.5,2.8,19.5,4.2L1109.6,124.1L1109.6,124.1z M1353.4,125.5
	c-8.4,2.8-16.7,4.2-23.7,7c16.7,8.4,34.8,19.5,50.2,36.2c-1.4,2.8-1.4,4.2-2.8,7c-13.9-9.7-26.5-19.5-40.4-26.5
	c9.8,12.5,22.3,26.5,30.6,40.4c-1.4,1.4-2.8,1.4-4.2,2.8l-2.8,1.4c-11.1-13.9-22.3-29.3-36.2-41.8v46l-2.8,34.8
	c-5.6-1.4-8.4-2.8-11.1-4.2c2.8-33.4,1.4-71.1-2.8-104.5c12.6-2.1,25.1-4.4,37.6-7L1353.4,125.5L1353.4,125.5z M1010.7,230
	c5.6,18.1-1.4,30.6-2.8,48.8c0,9.8-1.4,16.7-1.4,26.5c2.8,2.8,2.8-8.4,2.8-13.9c1.4-12.5,2.8-30.6,7-34.8
	c13.9-2.8,27.9-5.6,43.2-8.4l13.9-1.4c1.4,5.6,1.4,9.8,2.8,15.3c-16.7,2.8-33.4,5.6-50.2,11.2c8.4,18.1,29.3,33.4,46,44.6v19.5
	c-18.1-8.4-29.3-18.1-41.8-29.3c4.2,19.5,15.3,36.2,25.1,54.3c-2.8,2.8-4.2,5.6-7,9.8c-9.8-13.9-19.5-30.6-25.1-47.4l-1.4-1.4
	c-1.4,37.6,12.5,66.9,32,97.5v4.2c-29.3-33.4-43.2-72.4-46-117c-1.4,7-1.4,8.4-1.4,16.7c-9.8-39-7-86.4,5.6-122.6
	C1010.7,214.6,1007.9,220.2,1010.7,230L1010.7,230z M1416.1,289.9c-1.4,13.9-2.8,23.7-5.6,34.8c0-9.8,0-12.5-2.8-19.5v13.9
	c-4.2,40.4-19.5,76.6-47.4,107.3v-4.2c22.3-30.6,32-64.1,36.2-101.7c-2.9,8.3-6.6,16.2-11.1,23.7c-5.6,11.1-13.9,20.9-20.9,32
	c-4.2-4.2-5.6-5.6-7-9.8c8.4-16.7,22.3-37.6,29.3-57.1h-1.4c-12.5,12.5-27.9,22.3-41.8,30.6c-1.4-5.6-1.4-13.9-1.4-20.9
	c16.7-11.2,37.6-25.1,47.4-43.2c-16.7-4.2-33.4-8.4-47.4-11.1c0-7,1.4-11.2,1.4-18.1l55.7,9.8c5.6,1.4,8.4,29.3,8.4,44.6
	c8.4-11.1-8.4-51.6-1.4-75.2c0-5.6-1.4-13.9-2.8-25.1C1413.4,220.2,1416.1,259.2,1416.1,289.9L1416.1,289.9z M1233.6,262
	c7,9.8,5.6,25.1,0,34.8c-8.4,11.1-20.9,18.1-34.8,13.9c-11.1-2.8-20.9-12.6-22.3-22.3c-2.8-12.5,0-26.5,9.8-33.4
	c8.4-7,20.9-11.1,30.6-7C1223.9,250.8,1230.8,256.4,1233.6,262z M1140.2,299.6c16.7,18.1,39,34.8,58.5,50.2v11.1
	c1.4,50.2,1.4,92,2.8,137.9c-5.6,0-12.5,1.4-19.5,0c-1.4-33.4-2.8-73.8-5.6-111.5c-20.9,9.8-44.6,19.5-66.9,26.5
	c-4.2-5.6-7-9.8-9.7-15.3c19.5-9.8,40.4-18.1,55.7-29.3c-13.9-4.2-27.9-7-40.4-11.1c-12.5-4.2-22.3-8.4-33.4-13.9v-19.5
	c25.1,8.4,50.2,19.5,78,22.3l1.4-1.4c-19.5-19.5-40.4-36.2-54.3-59.9c2.8-4.2,7-8.4,11.1-12.5
	C1124.9,282.9,1133.3,291.3,1140.2,299.6L1140.2,299.6z M1308.9,287.1c-13.9,22.3-34.8,41.8-53,58.5c26.5-1.4,53-11.1,76.7-22.3
	v20.9c-23.7,12.5-47.4,18.1-73.8,26.5c18.1,9.8,36.2,18.1,57.1,27.9c-1.4,5.6-5.6,11.1-9.8,15.3c-29.3-9.8-43.2-15.3-66.9-26.5
	c-1.4,39-2.8,73.8-7,111.5h-18.1c0-48.8,1.4-96.1,2.8-142.1v-5.6c0-1.4,20.9-16.7,30.6-26.5c29.3-25.1,34.8-33.4,50.2-51.6
	C1301.9,277.3,1306.1,282.9,1308.9,287.1L1308.9,287.1z M1108.2,112.9c8.4,0,15.3-5.6,15.3-13.9s-7-15.3-15.3-15.3
	c-8.4,0-13.9,7-13.9,15.3C1094.3,107.4,1099.8,112.9,1108.2,112.9L1108.2,112.9z M1307.5,114.3c8.4,0,15.3-7,15.3-15.3
	s-7-15.3-15.3-15.3s-15.3,7-15.3,15.3S1299.1,114.3,1307.5,114.3z"/>
<path class="st17" d="M1389.7,239.7c9.8-2.8,12.5-15.3,9.8-27.9c-4.2-13.9-15.3-22.3-23.7-19.5c-8.4,2.8-12.5,15.3-8.4,27.9
	C1371.6,234.1,1381.3,242.5,1389.7,239.7L1389.7,239.7z M1026,238.3c-9.8-1.4-12.5-15.3-9.8-27.9c4.2-13.9,15.3-22.3,23.7-19.5
	s12.5,15.3,8.4,29.3C1044.1,232.7,1034.4,241.1,1026,238.3L1026,238.3z"/>
<path class="st18" d="M1184.8,86.4l1.4,2.8c-13.9,5.6-26.5,11.1-39,20.9l-1.4,1.4c27.9-4.2,47.4-5.6,55.7-5.6v11.2
	c-20.1,1.4-40.2,4.2-59.9,8.4h2.8l40.4,19.5c-2.8,7-2.8,7-5.6,11.2c-16.7-7-29.3-11.2-48.8-16.7c-4.2,25.1-2.8,53-2.8,79.4
	c-2.8,2.8-7,4.2-12.5,4.2c-4.2-33.4-1.4-69.7,4.2-103.1c16.7-18.1,37.6-27.9,58.5-37.6C1182.1,85,1182.1,85,1184.8,86.4L1184.8,86.4
	z M1297.7,119.9c7,33.4,8.4,69.7,2.8,104.5c-4.2-1.4-7-2.8-12.5-4.2c4.2-30.6,4.2-55.7-1.4-82.2c-16.7,4.2-29.2,11.2-47.4,19.5
	c-2.8-4.2-4.2-5.6-7-11.2l43.2-22.3h-5.6c-16.7-2.8-34.8-5.6-52.9-7v-9.8c23.7,0,36.2,1.4,54.3,4.2c-11.1-11.2-26.5-16.7-39-23.7
	l5.6-5.6C1258.7,92,1281,100.4,1297.7,119.9L1297.7,119.9z M1111,122.7l-1.4,5.6c-5.6,32-5.6,65.5-2.8,97.5
	c-5.6,1.4-8.4,2.8-12.5,4.2v-2.8c-4.2-25.1-2.8-51.6-1.4-76.6c-15.3,12.5-26.5,27.9-37.6,41.8l-5.6-5.6
	c9.8-15.3,20.9-27.9,33.4-40.4l-8.4,4.2c-13.9,7-22.3,13.9-34.8,23.7c-1.4-2.8-2.8-4.2-2.8-7c13.9-16.7,36.2-29.3,50.2-36.2
	c-8.4-4.2-11.2-4.2-23.7-7c2.8-5.6,5.6-8.4,8.4-11.1c8.4,1.4,12.5,2.8,19.5,4.2L1111,122.7L1111,122.7z M1353.4,124.1
	c-7,2.8-15.3,4.2-22.3,7c16.7,8.4,34.8,19.5,50.2,36.2c-1.4,2.8-1.4,4.2-2.8,7c-13.9-9.8-26.5-19.5-41.8-26.5
	c11.1,12.5,23.7,26.5,32,40.4c-2.8,1.4-2.8,1.4-4.2,2.8l-2.8,1.4c-11.1-13.9-23.7-29.3-36.2-41.8v46l-2.8,34.8
	c-5.6-1.4-8.4-2.8-12.5-4.2c2.8-33.4,1.4-71.1-1.4-104.5c12.1-1.9,24.2-4.2,36.2-7C1347.9,118.5,1350.7,119.9,1353.4,124.1
	L1353.4,124.1z M1012.1,228.6c4.2,18.1-1.4,30.6-2.8,48.8c-1.4,9.8-1.4,16.7-1.4,26.5c1.4,2.8,2.8-8.4,2.8-13.9
	c1.4-12.5,1.4-30.7,7-34.8l41.8-8.4l15.3-1.4c1.4,5.6,1.4,9.8,1.4,15.3c-16.7,2.8-33.4,5.6-48.8,11.2c8.4,18.1,27.9,33.4,46,44.6
	v20.9c-18.1-9.7-29.3-19.5-41.8-30.6c4.2,19.5,15.3,36.2,25.1,54.3c-2.8,2.8-4.2,5.6-7,9.8c-11.1-13.9-20.9-30.7-26.5-47.4l-1.4-1.4
	c0,37.6,13.9,66.9,33.4,97.5v2.8l-1.4,1.4c-27.9-33.4-43.2-72.4-46-117c0,7-1.4,8.4-1.4,16.7c-8.4-39-5.6-86.4,7-122.6
	C1012.1,213.2,1009.3,218.8,1012.1,228.6L1012.1,228.6z M1416.1,288.5c0,13.9-2.8,23.7-4.2,34.8c0-9.7,0-12.5-2.8-19.5
	c-1.4,8.4,0,7,0,13.9c-4.2,40.4-19.5,76.6-47.4,107.3v-4.2c22.3-30.6,32-64.1,36.2-101.7c-4.2,8.4-7,16.7-11.1,23.7
	c-5.6,11.1-13.9,20.9-22.3,32c-2.8-4.2-4.2-5.6-7-9.8c9.8-16.7,23.7-37.6,29.3-57.1c-12.5,12.5-29.3,22.3-43.2,30.6v-20.9
	c16.7-11.2,37.6-25.1,47.4-43.2c-16.2-4.1-32.4-7.8-48.8-11.2c1.4-7,1.4-11.1,2.8-18.1l54.3,9.8c7,1.4,9.8,29.3,9.8,44.6
	c7-11.1-9.8-51.6-1.4-75.2c0-5.6-1.4-13.9-2.8-25.1C1414.7,218.8,1417.5,257.8,1416.1,288.5L1416.1,288.5z M1235,260.6
	c7,9.8,5.6,25.1,0,34.8c-8.4,11.1-20.9,18.1-34.8,13.9c-11.1-2.8-20.9-12.5-23.7-22.3c-2.8-12.5,0-26.5,11.1-33.4
	c8.4-7,20.9-11.1,30.6-7C1225.2,249.5,1230.8,255,1235,260.6L1235,260.6z M1141.6,298.2c16.7,18.1,39,34.8,58.5,50.2v11.1
	c1.4,50.2,1.4,92,1.4,137.9c-5.6,0-11.1,1.4-18.1,0c-1.4-33.4-4.2-73.8-5.6-111.5c-22.3,9.8-44.6,19.5-68.3,26.5
	c-2.8-5.6-5.6-9.8-9.7-15.3c20.9-9.8,41.8-18.1,57.1-29.3c-15.3-4.2-27.9-7-41.8-11.1c-12.5-4.2-20.9-8.4-33.4-13.9l1.4-19.5
	c23.7,8.4,50.2,19.5,78,22.3v-1.4c-19.5-19.5-39-36.2-54.3-59.9c4.2-4.2,8.4-8.4,11.1-12.5C1126.3,281.5,1133.3,289.9,1141.6,298.2z
	 M1310.2,285.7c-13.9,22.3-34.8,41.8-54.4,58.5c27.9-1.4,53-11.2,78-22.3v20.9c-23.7,12.5-47.4,18.1-73.8,26.5
	c18.1,9.8,36.2,18.1,57.1,27.9c-2.8,5.6-7,11.1-11.1,15.3c-27.9-9.8-41.8-15.3-65.5-26.5c-1.4,39-2.8,73.8-7,111.5h-19.5
	c1.4-48.8,1.4-96.1,4.2-142.1v-5.6c0-1.4,19.5-16.7,29.3-26.5c30.6-25.1,36.2-33.4,50.2-51.6
	C1303.3,275.9,1306.1,281.5,1310.2,285.7L1310.2,285.7z M1109.6,111.5c8.4,0,15.3-5.6,15.3-13.9s-7-15.3-15.3-15.3
	s-15.3,7-15.3,15.3C1094.3,106,1101.2,111.5,1109.6,111.5z M1308.9,112.9c8.4,0,15.3-7,15.3-15.3s-7-13.9-15.3-13.9
	s-15.3,5.6-15.3,13.9S1300.5,112.9,1308.9,112.9z"/>
<path class="st18" d="M1391.1,238.3c8.4-2.8,12.5-15.3,8.4-27.9c-4.2-13.9-13.9-22.3-22.3-19.5s-12.5,15.3-8.4,27.9
	C1372.9,232.7,1382.7,241.1,1391.1,238.3z M1026,236.9c-8.4-1.4-12.5-15.3-8.4-27.9c4.2-12.5,13.9-22.3,22.3-19.5
	c9.8,2.8,12.5,15.3,9.8,29.3C1045.5,231.3,1035.8,239.7,1026,236.9L1026,236.9z"/>
<path class="st19" d="M1186.2,85l1.4,2.8c-13.9,5.6-26.5,11.1-39,20.9l-1.4,1.4c27.9-4.2,46-5.6,54.3-5.6c1.4,5.6,1.4,8.4,1.4,11.2
	c-19.5,1.4-41.8,4.2-59.9,8.4h2.8l40.4,19.5c-2.8,7-4.2,7-5.6,11.1c-18.1-7-29.3-11.1-48.8-16.7c-4.2,25.1-4.2,53-2.8,79.4
	c-4.2,2.8-8.4,4.2-12.6,4.2c-4.2-33.4-1.4-69.7,4.2-103.1c16.7-18.1,37.6-27.9,58.5-37.6C1183.5,83.7,1182.1,83.7,1186.2,85
	L1186.2,85z M1299.1,118.5c5.6,33.4,8.4,69.7,2.8,104.5c-4.2-1.4-7-2.8-12.5-4.2c4.2-30.6,4.2-55.7-1.4-82.2
	c-16.7,4.2-30.7,11.1-48.8,19.5c-1.4-4.2-2.8-5.6-7-11.2l43.2-20.9l-4.2-1.4c-18.1-2.8-36.2-5.6-54.3-7c0-2.8,1.4-7,0-9.8
	c25.1,0,37.6,1.4,55.7,4.2c-12.5-11.1-26.5-16.7-39-23.7c2.8-2.8,2.8-4.2,5.6-5.6C1260.1,90.6,1282.4,99,1299.1,118.5L1299.1,118.5z
	 M1111,121.3v4.2c-7,33.4-5.6,66.9-4.2,98.9c-4.2,1.4-7,2.8-11.1,4.2l-1.4-2.8c-2.8-25.1-1.4-51.6,0-76.6
	c-15.3,12.5-26.5,27.9-37.6,41.8l-5.6-5.6c8.4-15.3,20.9-27.9,32-40.4l-8.4,4.2c-12.5,7-22.3,13.9-34.8,23.7c0-2.8-1.4-4.2-2.8-7
	c15.3-16.7,37.6-29.3,50.2-36.2c-8.4-4.2-11.2-4.2-22.3-7c2.8-5.6,4.2-8.4,7-11.1c9.8,1.4,12.5,2.8,20.9,4.2L1111,121.3L1111,121.3z
	 M1354.8,122.7c-8.4,2.8-15.3,4.2-22.3,7c15.3,8.4,34.8,19.5,50.2,36.2c-1.4,2.8-2.8,4.2-4.2,7c-12.5-9.8-26.5-19.5-40.4-26.5
	c11.1,12.5,23.7,26.5,32,40.4l-5.6,2.8l-1.4,1.4c-11.1-13.9-23.7-29.3-37.6-41.8c1.4,18.1,1.4,30.6,0,46l-2.8,34.8
	c-4.2-1.4-7-2.8-11.1-4.2c2.8-33.4,1.4-71.1-1.4-104.5c12.1-1.9,24.2-4.3,36.2-7C1349.3,117.1,1350.7,118.5,1354.8,122.7
	L1354.8,122.7z M1012.1,227.2c5.6,18.1-1.4,30.6-1.4,48.8c-1.4,9.8-1.4,16.7-1.4,26.5c1.4,2.8,1.4-8.4,1.4-12.5
	c1.4-13.9,2.8-32,8.4-36.2c13.9-2.8,26.5-5.6,41.8-8.4l13.9-1.4c1.4,5.6,2.8,9.8,2.8,15.3c-16.7,2.8-33.4,5.6-48.8,11.2
	c8.4,18.1,27.9,33.4,44.6,44.6c1.4,8.4,0,12.5,0,19.5v1.4c-16.7-9.8-27.9-19.5-40.4-30.7c2.8,19.5,15.3,36.2,23.7,54.3
	c-1.4,2.8-2.8,5.6-5.6,9.8c-11.1-13.9-20.9-30.7-26.5-47.4l-1.4-1.4c0,37.6,13.9,66.9,32,97.5v4.2c-27.9-33.4-43.2-72.4-46-117
	c-1.4,7-1.4,8.4-1.4,16.7c-8.4-39-5.6-86.4,7-122.6C1013.5,211.8,1009.3,217.4,1012.1,227.2L1012.1,227.2z M1417.5,287.1
	c-1.4,13.9-2.8,23.7-5.6,34.8c1.4-9.7,0-12.5-1.4-19.5c-1.4,8.4,0,7-1.4,13.9c-2.8,40.4-19.5,76.6-46,107.3v-4.2
	c22.3-30.6,32-64.1,34.8-101.7c-2.8,8.4-7,16.7-9.8,23.7c-5.6,11.1-13.9,20.9-22.3,32c-4.2-4.2-5.6-5.6-7-9.8
	c9.8-16.7,23.7-37.6,29.3-57.1h-1.4c-11.1,12.5-27.9,22.3-41.8,30.6v-20.9c16.7-11.1,37.6-25.1,46-43.2
	c-16.7-4.2-33.4-8.4-47.4-11.2c0-7,1.4-11.1,2.8-18.1l54.3,9.8c7,1.4,8.4,29.3,9.8,44.6c7-11.1-9.8-51.6-2.8-75.2
	c1.4-5.6,0-13.9-2.8-25.1C1416.1,217.4,1418.9,256.4,1417.5,287.1L1417.5,287.1z M1235,259.2c8.4,9.8,7,25.1,0,34.8
	c-7,11.1-20.9,18.1-34.8,13.9c-9.8-2.8-19.5-12.5-22.3-22.3c-2.8-12.5,0-26.5,9.8-33.4c8.4-7,20.9-11.1,32-7
	C1226.6,248.1,1232.2,253.6,1235,259.2z M1143,296.8c16.7,18.1,39,34.8,57.1,50.2l1.4,11.1c0,50.2,1.4,92,1.4,137.9
	c-5.6,0-11.1,1.4-18.1,0c-2.8-33.4-4.2-73.8-7-111.5c-20.9,9.8-44.6,19.5-66.9,26.5c-4.2-5.6-5.6-9.8-9.8-15.3
	c20.9-9.8,41.8-18.1,57.1-29.3c-15.3-4.2-27.9-7-41.8-11.1c-11.5-3.8-22.7-8.5-33.4-13.9v-19.5c25.1,8.4,50.2,19.5,78,22.3l1.4-1.4
	c-19.5-19.5-40.4-36.2-54.3-59.9c4.2-4.2,8.4-8.4,11.1-12.5C1127.7,280.1,1134.7,288.5,1143,296.8L1143,296.8z M1311.6,284.3
	c-13.9,22.3-34.8,41.8-54.3,58.5c26.5-1.4,53-11.2,76.6-22.3c1.4,1.4,0,7,1.4,9.7l-1.4,11.2c-23.7,12.5-47.4,18.1-73.8,26.5
	c19.5,9.8,37.6,18.1,58.5,27.9c-2.8,5.6-7,11.1-11.1,15.3c-29.3-9.8-41.8-15.3-65.5-26.5c-2.8,39-4.2,73.8-7,111.5
	c-1.4,0-16.7,1.4-19.5,0c0-48.8,1.4-96.1,2.8-142.1v-5.6c0-1.4,20.9-16.7,30.7-26.5c29.2-25.1,34.8-33.4,50.2-51.6
	C1303.3,274.5,1307.5,280.1,1311.6,284.3L1311.6,284.3z M1111,110.1c8.4,0,15.3-5.6,15.3-13.9s-7-15.3-15.3-15.3s-15.3,7-15.3,15.3
	S1102.6,110.1,1111,110.1z M1310.2,111.5c7,0,13.9-7,13.9-15.3s-7-13.9-13.9-13.9c-8.4,0-15.3,5.6-15.3,13.9
	S1301.9,111.5,1310.2,111.5z"/>
<path class="st19" d="M1392.4,236.9c8.4-2.8,12.5-15.3,8.4-27.9c-4.2-13.9-13.9-22.3-22.3-19.5c-9.8,2.8-12.5,15.3-9.8,27.9
	C1372.9,231.3,1384.1,239.7,1392.4,236.9L1392.4,236.9z M1027.4,235.5c-8.4-1.4-12.5-15.3-8.4-27.9c4.2-12.5,13.9-22.3,22.3-19.5
	c8.4,2.8,12.5,15.3,8.4,29.3C1046.9,230,1035.8,238.3,1027.4,235.5z"/>
<path class="st20" d="M1186.2,83.7l1.4,2.8c-12.5,5.6-25.1,11.1-37.6,20.9l-2.8,2.8c27.9-5.6,47.4-7,55.7-7
	c1.4,5.6,1.4,8.4,1.4,11.1c-19.5,1.4-41.8,4.2-59.9,8.4l2.8,1.4l39,18.1c-1.4,7-2.8,7-5.6,11.1c-16.7-7-29.3-11.1-48.8-16.7
	c-4.2,25.1-2.8,53-1.4,79.4c-4.2,2.8-8.4,4.2-12.5,4.2c-4.2-33.4-1.4-69.7,2.8-103.1c18.1-18.1,37.6-27.9,58.5-37.6
	C1183.5,82.3,1183.5,82.3,1186.2,83.7L1186.2,83.7z M1300.5,117.1c5.6,33.4,8.4,69.7,2.8,104.5c-4.2-1.4-7-2.8-12.5-4.2
	c2.8-30.7,2.8-55.7-2.8-82.2c-16.7,4.2-29.3,11.1-47.4,19.5c-1.4-4.2-2.8-5.6-7-11.1l43.2-20.9l-4.2-1.4c-18.1-2.8-36.2-5.6-54.4-7
	v-9.8c23.7,0,37.6,1.4,54.4,4.2c-11.1-11.2-25.1-16.7-39-23.7c2.8-2.8,4.2-4.2,7-5.6C1261.5,89.2,1282.4,97.6,1300.5,117.1
	L1300.5,117.1z M1112.4,119.9l-1.4,5.6c-5.6,32-5.6,65.5-2.8,97.5l-12.5,4.2v-2.8c-2.8-25.1-1.4-51.6,0-76.6
	c-15.3,12.5-26.5,27.9-39,41.8c-1.4-2.8-4.2-4.2-4.2-5.6c8.4-15.3,20.9-27.9,32-40.4l-8.4,4.2c-13.9,7-22.3,13.9-34.8,23.7
	c0-2.8-1.4-4.2-2.8-7c15.3-16.7,36.2-29.3,50.2-36.2c-8.4-4.2-11.2-4.2-23.7-7c4.2-5.6,5.6-8.4,8.4-11.2c8.4,1.4,12.5,2.8,19.5,4.2
	L1112.4,119.9L1112.4,119.9z M1356.2,121.3c-8.4,2.8-16.7,4.2-22.3,7c15.3,8.4,34.8,19.5,48.8,36.2c-1.4,2.8-1.4,4.2-2.8,7
	c-13.9-9.8-26.5-19.5-40.4-26.5c9.8,12.5,23.7,26.5,32,40.4c-2.8,1.4-4.2,1.4-5.6,2.8l-2.8,1.4c-11.1-13.9-22.3-29.3-36.2-41.8v46
	l-2.8,34.8c-5.6-1.4-8.4-2.8-11.1-4.2c2.8-33.4,1.4-71.1-2.8-104.5c12.6-2.1,25.1-4.4,37.6-7C1350.7,115.7,1352,117.1,1356.2,121.3
	L1356.2,121.3z M1013.5,225.8c5.6,18.1-1.4,30.6-2.8,48.8c0,9.7,0,16.7-1.4,26.5c2.8,2.8,2.8-8.4,2.8-12.5c1.4-13.9,2.8-32,7-36.2
	c15.3-2.8,27.9-5.6,43.2-8.4l13.9-1.4c1.4,5.6,1.4,9.8,2.8,15.3c-16.7,2.8-33.4,5.6-50.2,11.2c8.4,18.1,29.3,33.4,46,44.6v20.9
	c-18.1-9.8-29.3-19.5-41.8-30.7c4.2,19.5,15.3,36.2,25.1,54.3c-2.8,2.8-4.2,5.6-7,9.8c-9.8-13.9-19.5-30.7-25.1-47.4l-1.4-1.4
	c-1.4,37.6,12.5,66.9,32,97.5v4.2c-29.3-33.4-43.2-72.4-46-117c-1.4,7-1.4,8.4-1.4,16.7c-8.4-39-7-86.4,5.6-122.6
	C1013.5,210.4,1010.7,216,1013.5,225.8L1013.5,225.8z M1418.9,285.7c-1.4,13.9-2.8,23.7-5.6,34.8c0-9.8,0-12.5-2.8-19.5
	c0,8.4,1.4,7,0,13.9c-4.2,40.4-19.5,76.6-47.4,107.3l1.4-4.2c20.9-30.6,30.6-64.1,34.8-101.7c-2.9,8.3-6.6,16.2-11.1,23.7
	c-5.6,11.2-13.9,20.9-20.9,32c-4.2-4.2-5.6-5.6-7-9.8c9.8-16.7,22.3-37.6,29.3-57.1h-1.4c-12.5,12.5-27.9,22.3-41.8,30.7
	c-1.4-5.6-1.4-13.9-1.4-20.9c16.7-11.1,37.6-25.1,47.4-43.2c-16.7-4.2-33.4-8.4-47.4-11.2c0-7,1.4-11.1,1.4-18.1l55.7,9.8
	c7,1.4,8.4,29.3,9.8,44.6c7-11.1-9.8-51.6-2.8-75.2c0-5.6-1.4-13.9-2.8-25.1C1417.5,216,1418.9,255,1418.9,285.7L1418.9,285.7z
	 M1236.4,257.8c7,9.8,5.6,25.1,0,34.8c-8.4,11.2-20.9,18.1-34.8,13.9c-9.8-2.8-20.9-12.5-22.3-22.3c-2.8-12.5,0-26.5,9.8-33.4
	c8.4-7,20.9-11.1,32-7C1226.6,246.7,1233.6,252.2,1236.4,257.8L1236.4,257.8z M1143,295.4c18.1,18.1,39,34.8,58.5,50.2v11.1
	c1.4,50.2,1.4,92,2.8,137.9c-5.6,0-12.5,1.4-19.5,0c-1.4-33.4-2.8-73.8-5.6-111.5c-20.9,9.8-44.6,19.5-66.9,26.5
	c-4.2-5.6-7-9.8-9.8-15.3c20.9-9.8,40.4-18.1,55.7-29.3c-13.9-4.2-27.9-7-40.4-11.1c-11.5-3.8-22.7-8.5-33.4-13.9v-19.5
	c25.1,8.4,50.2,19.5,78,22.3l1.4-1.4c-19.5-19.5-40.4-36.2-54.3-58.5c2.8-5.6,7-9.7,11.2-13.9C1127.7,278.7,1136.1,287.1,1143,295.4
	z M1311.6,282.9c-12.5,22.3-34.8,41.8-52.9,58.5c26.5-1.4,52.9-11.2,76.6-22.3V340c-23.7,12.5-47.4,18.1-73.8,26.5
	c18.1,9.8,36.2,18.1,57.1,27.9c-1.4,5.6-5.6,11.1-9.8,15.3c-29.3-9.8-43.2-15.3-66.9-26.5c-1.4,39-2.8,73.8-5.6,111.5
	c-1.4,0-18.1,1.4-19.5,0c0-48.8,1.4-96.1,2.8-142.1V347c0-1.4,20.9-16.7,30.7-26.5c29.2-25.1,34.8-33.4,50.2-51.6
	C1304.7,273.2,1308.9,278.7,1311.6,282.9L1311.6,282.9z"/>
<path class="st21" d="M863,478c18.1,48.8-51.6,82.2-20.9,131c30.7,68.3,30.7,150.5,51.6,222.9c20.9,64.1,114.3,78,118.4,151.9
	c-16.7,0-26.5-18.1-41.8-26.5c-37.6-11.2-51.6-51.6-79.4-76.6c-44.6-57.1-65.5-128.2-59.9-202c-9.8-25.1-20.9-50.2-30.7-76.6
	c-5.6-22.3-8.4-48.8-1.4-71.1c11.1-22.3,26.5-43.2,30.7-68.3C842.1,465.4,853.2,471,863,478L863,478z M1575,604.8
	c-12.6,41.8-48.8,73.8-61.3,115.7c-16.7,33.4-39,64.1-43.2,103.1c-13.9,33.4-48.8,50.2-75.2,72.4c-33.4,26.5-71.1,50.2-105.9,73.8
	c-1.4-1.4-4.2,0-5.6-2.8c18.1-32,50.2-55.7,78-83.6c54.3-44.6,107.3-98.9,105.9-171.4c26.5-40.4,44.6-83.6,71.1-122.6
	c-5.6-32,2.8-62.7,2.8-96.1C1575,518.4,1584.7,565.8,1575,604.8L1575,604.8z"/>
<path class="st3" d="M1481.6,636.8c2.8,9.8-11.1,9.8-15.3,16.7c-36.2,44.6-78,90.6-92,146.3c-33.4,29.3-76.6,40.4-111.5,69.7
	l-18.1,1.4c-7-20.9,18.1-22.3,29.3-30.6c46-33.4,89.2-79.4,112.8-128.2C1417.5,685.6,1435.6,634,1481.6,636.8L1481.6,636.8z
	 M1258.7,678.6c4.2,1.4,5.6,2.8,9.8,5.6c8.4,4.2,18.1,8.4,25.1,16.7c1.4,4.2,1.4,4.2,0,7c-29.3-22.3-72.5-18.1-105.9-9.8
	c-9.8,0-20.9,0-26.5-7c26.5-16.7,61.3-22.3,93.3-13.9L1258.7,678.6L1258.7,678.6z M1131.9,714.8c-9.8,19.5-36.2,29.3-37.6,52.9
	c-5.6,12.6-19.5,20.9-18.1,36.2c41.8,30.6,32,85,32,132.4c27.9-4.2,50.2-25.1,72.4-41.8l27.9-25.1c12.5,2.8,23.7,5.6,32,13.9
	c-8.4,18.1-19.5,33.4-25.1,53c-7,19.5-9.8,46-2.8,66.9c2.8,4.2,8.4,0,12.5,0c7-2.8,13.9-9.8,15.3-16.7c13.9,2.8,30.6,1.4,37.6,16.7
	c0,53-7,108.7-2.8,160.2c-1.4,2.8-5.6,5.6-8.4,7c-22.3-36.2-32.1-79.4-30.7-125.4c-13.9-9.8-32-4.2-46-20.9
	c-7-8.4-8.4-15.3-11.1-25.1c-2.8-15.3,1.4-33.4-4.2-48.8c-2.8-4.2-9.8-4.2-12.5-2.8c-13.9,7-27.9,22.3-44.6,13.9
	c-7-1.4-12.5-5.6-16.7-11.1c-22.3,26.5-27.9,61.3-30.6,94.7c5.6,47.4,22.3,92,34.8,137.9c1.4,4.2,5.6,8.4,11.1,9.8
	c18.1,0,29.3-16.7,47.4-13.9l16.7,1.4v1.4l-79.4,47.4c-8.4-2.8-16.7-8.4-26.5-11.1v-1.4l19.5-15.3c-33.4-82.2-78-183.9-30.6-273.1
	c12.5-33.4,13.9-76.6-1.4-108.7c-1.4-11.2-9.8-19.5-13.9-29.3c1.4-46,51.6-66.9,83.6-92C1134.7,703.7,1133.3,709.3,1131.9,714.8
	L1131.9,714.8z M1294.9,737.1c-39,2.8-73.9-8.4-111.5-11.2c0-4.2,5.6-7,8.4-8.4c26.5-12.5,64.1-8.4,87.8,5.6
	C1286.5,726,1290.8,731.6,1294.9,737.1L1294.9,737.1z"/>
<path class="st3" d="M963.3,815.2c30.6,26.5,87.8,32,90.6,82.2c-19.5,13.9-26.5-13.9-41.8-20.9c-39-32-97.5-61.3-101.7-117
	c-2.8-8.4-8.4-15.3-8.4-22.3C932.6,752.5,945.2,787.3,963.3,815.2z M1294.9,760.8c2.8,2.8,8.4,5.6,7,12.5
	c-25.1-1.4-55.7,12.5-83.6,4.2c-7-2.8-12.5-7-19.5-12.5c12.5-9.8,30.6-11.1,48.8-13.9C1262.9,752.5,1279.6,753.9,1294.9,760.8
	L1294.9,760.8z M1286.5,1254.1c-12.5,83.6-107.3,114.3-163,165.8c-26.5,32-79.4,44.6-82.2,90.6c23.7,33.4,36.2,85,12.5,122.6
	c-27.9,51.6-62.7,104.5-52.9,170c1.4,20.9,15.3,40.4,5.6,61.3c-25.1,15.3-57.1,18.1-85,26.5c1.4-7,7-12.5,12.5-18.1
	c18.1-19.5,50.2-39,39-69.7c-20.9-57.1-1.4-122.6,27.9-172.8c7-12.5,18.1-23.7,25.1-37.6c8.4-30.6,8.4-71.1-11.1-97.5
	c4.2-61.3,66.9-89.2,104.5-126.8c47.4-46,117-76.6,147.7-139.3c4.2-13.9,0-30.7-1.4-43.2C1283.8,1202.5,1289.4,1229,1286.5,1254.1
	L1286.5,1254.1z"/>
<path class="st21" d="M1080.3,1255.5c-2.8,20.9-19.5,34.8-23.7,55.7c19.5,8.4,40.4,16.7,61.3,25.1c-37.6,1.4-76.6,2.8-111.5,13.9
	c-48.8,43.2-90.6,96.2-83.6,164.4c8.4,47.4,7,103.1,4.2,150.5c-5.6,64.1-18.1,126.8-37.6,185.3c-11.1,26.5-34.8,43.2-51.6,66.9
	l-2.8,5.6c5.6,2.8,12.5,1.4,18.1-1.4c16.7-5.6,29.3-22.3,48.8-18.1c-18.1,22.3-46,47.4-76.6,44.6c-11.1,0-19.5-7-26.5-15.3
	c8.4-37.6,29.3-69.7,53-100.3c40.4-61.3,47.4-137.9,48.8-209c2.8-61.3,9.8-119.8-1.4-179.7c0-41.8,41.8-68.3,66.9-98.9l112.8-89.2
	L1080.3,1255.5L1080.3,1255.5L1080.3,1255.5z M1293.5,1332.1c23.7,32,44.6,71.1,80.8,92c72.4-54.4,170-23.7,243.8,2.8
	c32-19.5,68.3-46,108.7-27.9c19.5,29.3,43.2,54.3,65.5,82.2c-1.4,2.8-2.8,9.8-7,7c-36.2-16.7-68.3-44.6-104.5-64.1
	c-25.1,1.4-43.2,18.1-64.1,29.3c-48.8,7-92-13.9-138-25.1c-33.4-8.4-72.4-4.2-97.5,20.9c-20.9,1.4-41.8-7-57.1-22.3
	c-25.1-30.7-37.6-66.9-58.5-98.9c1.1-2.5,3.1-4.5,5.6-5.6C1281,1320.9,1285.2,1329.3,1293.5,1332.1L1293.5,1332.1z"/>
<path class="st3" d="M1177.9,1410.1c54.3,47.4,111.5,93.3,177,118.4c26.5-1.4,51.6-5.6,78-9.8l139.3-25.1
	c48.8-4.2,108.7-11.1,151.9,11.1c19.5,8.4,39,16.7,57.1,29.3c7-5.6-7-27.9,11.1-22.3c7,12.5,13.9,27.9,9.8,43.2
	c-5.6,2.8-11.1,5.6-18.1,5.6c-79.4-30.6-170-54.3-262-34.8c-26.5,8.4-55.7,9.8-83.6,13.9l-104.5,12.5
	c-66.9-20.9-122.6-73.8-174.2-124c-1.4-5.6-1.4-9.8,1.4-15.4C1163.9,1405.9,1173.7,1410.1,1177.9,1410.1L1177.9,1410.1z"/>
<path class="st22" d="M497.9,2009.3v29.3c-7,0-12.5-1.4-13.9,5.6l2.8,7c11.1,13.9,26.5,26.5,22.3,47.4c-1.4,8.4-9.8,16.7-18.1,20.9
	c-15.3,7-39,5.6-55.7,1.4c0-11.1-1.4-22.3,0-33.4c8.4,0,27.9,5.6,26.5-2.8c-5.6-22.3-36.2-39-20.9-65.5
	C449.1,2003.7,478.4,2003.7,497.9,2009.3L497.9,2009.3z M1974.9,2019c-7,12.5-12.5,23.7-18.1,32c-9.8-5.6-20.9-11.1-34.8-5.6
	c-8.4,4.2-14,12.5-12.6,23.7c1.4,11.1,9.8,18.1,19.5,19.5c9.8,2.8,19.5-1.4,27.9-8.4c7,11.1,13.9,22.3,19.5,30.6
	c-15.3,15.3-39,16.7-59.9,12.5c-20.9-4.2-40.4-22.3-44.6-46c-4.2-19.5,2.8-39,16.7-52.9c16.7-15.3,41.8-20.9,65.5-15.3
	C1959.5,2010.7,1967.9,2013.5,1974.9,2019L1974.9,2019z M2057.1,2010.7v30.6c-7,0-13.9-1.4-13.9,4.2c9.8,16.7,26.5,30.6,25.1,50.2
	c0,8.4-4.2,16.7-11.1,20.9c-18.1,12.5-44.6,8.4-64.1,5.6v-33.4c8.4,1.4,27.9,5.6,26.5-2.8c-5.6-22.3-37.6-41.8-18.1-68.3
	C2011.1,2005.1,2039,2006.5,2057.1,2010.7L2057.1,2010.7z M1375.7,2007.9c1.4,30.6,1.4,55.7,1.4,83.6c10.2-1.4,20.5-1.4,30.6,0v32
	h-69.7v-115.6H1375.7z M1095.7,2007.9c1.4,30.6,0,55.7,0,82.2c9.8,1.4,22.3,0,32,1.4v32H1058v-115.6c5.6,1.4,7,0,11.1,0H1095.7z
	 M1460.7,2007.9c4.2,8.4,8.4,16.7,13.9,23.7h1.4c4.2-9.8,8.4-15.3,12.5-23.7h39c-11.3,22.4-22.9,44.7-34.8,66.9v48.8h-37.6V2072
	c-11.1-19.5-22.3-40.4-33.4-61.3l-1.4-2.8L1460.7,2007.9L1460.7,2007.9z M1576.4,2007.9c9.7,13.9,19.5,27.9,29.3,43.2
	c9.8-13.9,20.9-29.3,30.6-43.2h29.3v115.6h-37.6v-39c-7,9.8-13.9,20.9-20.9,30.6l-23.7-29.3v37.6h-36.3v-115.6L1576.4,2007.9
	L1576.4,2007.9L1576.4,2007.9z M612.2,2026c7,11.2,9.8,27.9,5.6,41.8c-4.2,12.5-13.9,22.3-26.5,25.1c-7,1.4-13.9,2.8-20.9,2.8v27.9
	h-37.6l-1.4-4.2v-111.5h48.8C595.5,2009.3,605.2,2016.2,612.2,2026z M569,2039.9v22.3c2.8,1.4,5.6,1.4,8.4,0
	c7-2.8,5.6-11.1,4.2-15.3C581.5,2039.9,574.5,2039.9,569,2039.9L569,2039.9z M1777,2031.6c5.6,12.5,7,34.8-2.8,47.4
	c-9.8,13.9-27.9,16.7-44.6,16.7v27.9h-36.2v-115.6c26.5,0,64.1-2.8,78,15.3L1777,2031.6z M1729.6,2041.3v22.3
	c2.8,1.4,9.8,0,12.5-1.4c4.2-5.6,2.8-7,2.8-13.9C1743.6,2042.7,1735.2,2041.3,1729.6,2041.3L1729.6,2041.3z M1310.2,2045.5
	c7,18.1,2.8,41.8-9.8,55.7c-12.5,16.7-30.7,25.1-51.6,23.7c-22.3-1.4-41.8-16.7-50.2-36.2c-7-19.5-5.6-44.6,8.4-59.9
	c15.3-18.1,37.6-26.5,61.3-20.9C1293.5,2013.5,1303.3,2027.4,1310.2,2045.5L1310.2,2045.5z M1239.2,2048.3c-5.6,4.2-7,9.8-8.4,15.3
	c0,8.4,2.8,15.3,9.8,20.9c5.6,2.8,12.5,4.2,19.5,2.8c8.4-2.8,15.3-11.1,16.7-19.5c0-5.6-1.4-12.5-5.6-16.7
	C1264.3,2041.3,1247.5,2039.9,1239.2,2048.3z"/>
<path class="st23" d="M1441.2,2163.9c-5.6,8.4-12.5,18.1-18.1,26.5c-5.6-2.8-12.5-7-20.9-4.2c-7,2.8-11.1,9.8-12.5,16.7
	c-1.4,7,1.4,13.9,5.6,19.5c5.6,4.2,11.1,5.6,18.1,4.2c4.2,0,7-1.4,9.8-5.6c-5.6,0-7,0-7-8.4v-13.9h40.4c-1.4,18.1,1.4,30.6-5.6,43.2
	c-9.8,15.3-37.6,22.3-58.5,15.3c-13.9-4.2-27.9-16.7-33.4-32c-7-16.7-2.8-39,8.4-52.9c15.3-16.7,36.2-23.7,58.5-18.1
	C1431.5,2157,1435.6,2159.7,1441.2,2163.9L1441.2,2163.9z M2058.5,2155.6c1.4,8.8,1.4,17.7,0,26.5c-4.2,0-12.5-1.4-11.1,4.2
	c7,16.7,27.9,32,20.9,52.9c-11.1,20.9-33.4,20.9-54.3,18.1c-4.2,0-8.4-1.4-12.5-2.8v-27.9c7,1.4,9.8,1.4,16.7,1.4
	c5.6,0,8.4-1.4,8.4-5.6c-5.6-18.1-33.4-36.2-18.1-58.5C2018.1,2150,2041.8,2151.4,2058.5,2155.6L2058.5,2155.6z M470.1,2154.2
	c4.2,11.1,7,19.5,12.5,32c2.8-11.1,7-20.9,9.8-32H516c4.2,11.1,8.4,20.9,11.1,32c4.2-11.1,8.4-20.9,12.5-32h34.8
	c-10.9,34.4-22.1,68.8-33.4,103.1H516c-2.8-8.4-7-16.7-11.2-26.5c-2.6,8-5.3,15.9-8.4,23.7l-1.4,2.8h-25.1
	c-11.1-34.8-23.7-68.3-34.8-103.1H470.1L470.1,2154.2z M1005.1,2154.2l1.4,75.2h27.9v27.9h-62.7c0-34.8-1.4-65.5,0-103.1
	L1005.1,2154.2L1005.1,2154.2z M1715.7,2154.2c9.8,12.5,18.1,26.5,27.9,37.6l1.4-2.8l23.7-34.8h27.9v103.1h-34.8v-32
	c-5.6,8.4-12.5,16.7-18.1,25.1c-6.8-8.1-13.3-16.5-19.5-25.1l-1.4,32h-32c-1.4-34.4-1.4-68.7,0-103.1L1715.7,2154.2L1715.7,2154.2z
	 M1930.3,2155.6v26.5h-26.5v11.1h26.5v25.1h-26.5c0,4.2,1.4,8.4,0,11.1h26.5c1.4,9.8,0,18.1,0,27.9h-59.9c0-29.3,1.4-68.3,0-103.1h7
	L1930.3,2155.6L1930.3,2155.6z M895,2177.9c5.6,9.8,5.6,27.9-1.4,37.6c-4.2,4.2-5.6,7-8.4,9.8c1.4,0,2.8,4.2,4.2,5.6
	c5.6,11.1,8.4,16.7,13.9,26.5c-13.9,0-23.7-1.4-37.6,0l-13.9-20.9v20.9c-11.2,0-22.3-1.4-33.4,0v-103.1
	C846.3,2155.6,882.5,2148.6,895,2177.9L895,2177.9z M851.8,2183.4v20.9c4.2,0,7,0,9.8-2.8c2.8-2.8,2.8-7,1.4-12.5
	C861.6,2184.8,857.4,2183.4,851.8,2183.4z M1187.6,2183.4c7,19.5,5.6,40.4-7,57.1c-16.7,20.9-46,16.7-78,16.7
	c1.4-30.6,1.4-66.9,1.4-100.3v-2.8C1134.7,2154.2,1175.1,2150,1187.6,2183.4L1187.6,2183.4z M1155.6,2191.8
	c-5.6-5.6-12.5-7-18.1-5.6v40.4c5.6,1.4,12.5-1.4,16.7-5.6C1159.8,2218.3,1161.2,2198.8,1155.6,2191.8L1155.6,2191.8z M736.2,2175.1
	c8.4,12.5,12.5,30.6,8.4,46c-5.6,15.3-18.1,30.6-33.4,36.2c-19.5,7-41.8,1.4-57.1-13.9c-11.2-12.5-16.7-27.9-13.9-44.6
	c2.8-22.3,19.5-40.4,40.4-46C704.1,2148.6,723.6,2158.4,736.2,2175.1L736.2,2175.1z M680.4,2190.4c-5.6,4.2-7,9.8-7,15.3
	c0,7,1.4,12.5,7,16.7c4.2,4.2,11.2,5.6,18.1,2.8c7-1.4,12.5-8.4,13.9-16.7c1.4-5.6-1.4-11.1-4.2-15.3
	C701.4,2183.4,687.4,2184.8,680.4,2190.4L680.4,2190.4z M1584.7,2154.2c12.6,34.8,26.5,69.7,39,103.1h-32l-4.2-8.4h-29.3
	c-1.4,2.8-2.8,4.2-4.2,8.4c-9.8,0-18.1-1.4-29.3,0h-4.2c13.6-34.1,26.6-68.5,39-103.1H1584.7L1584.7,2154.2z M1572.2,2211.3
	l-4.2,12.5h8.4C1575,2218.3,1575,2215.5,1572.2,2211.3z"/>
<path class="st24" d="M1111,108.7c8.4,0,15.3-5.6,15.3-13.9s-7-15.3-15.3-15.3c-7,0-13.9,7-13.9,15.3S1104,108.7,1111,108.7z
	 M1310.2,110.1c8.4,0,15.3-7,15.3-15.3s-7-13.9-15.3-13.9c-8.4,0-15.3,5.6-15.3,13.9S1301.9,110.1,1310.2,110.1z M1392.4,235.5
	c9.8-2.8,12.5-15.3,9.8-27.9c-4.2-13.9-13.9-22.3-23.7-19.5c-8.4,2.8-12.5,15.3-8.4,27.9C1374.3,230,1384.1,238.3,1392.4,235.5
	L1392.4,235.5z M1028.8,234.1c-8.4-1.4-12.5-15.3-8.4-27.9c2.8-12.5,13.9-22.3,22.3-19.5c8.4,2.8,12.5,15.3,8.4,29.3
	C1046.9,228.6,1037.1,236.9,1028.8,234.1z"/>
<path class="st25" d="M1806.3,2123.5h37.6v-115.7h-37.6V2123.5z M991.2,2007.9c15.3,37.6,29.3,75.2,43.2,112.8l1.4,2.8h-34.8
	c-2.4-3.4-4.3-7.2-5.6-11.1h-32c-2.8,5.6-5.6,9.8-5.6,11.1h-36.2l2.8-7l41.8-108.7H991.2z M973,2085.9h12.5l-7-16.7L973,2085.9z
	 M864.4,2123.5h39v-114.3h-39V2123.5z M641.4,2007.9h68.3v30.7H679v11.1h29.3v32H679v11.1h30.7v30.7h-68.3V2007.9L641.4,2007.9z"/>
<path class="st26" d="M1151.4,469.6c4.2,2.8,5.6,7,5.6,11.2c0,4.2-1.4,8.4-5.6,11.1c-2.8,4.2-7,5.6-11.1,5.6
	c-4.2,0-8.4-1.4-11.1-5.6c-2.8-2.8-5.6-7-5.6-11.1c0-4.2,2.8-8.4,5.6-11.2c2.8-4.2,7-5.6,11.1-5.6
	C1144.4,464,1148.6,465.4,1151.4,469.6z M1154.2,466.8c-4.2-2.8-8.4-5.6-13.9-5.6c-5.6,0-9.7,2.8-13.9,5.6
	c-2.8,4.2-5.6,8.4-5.6,13.9c0,5.6,2.8,9.7,5.6,13.9c4.2,2.8,8.4,5.6,13.9,5.6c5.6,0,9.8-2.8,13.9-5.6c2.8-4.2,5.6-8.4,5.6-13.9
	C1159.8,475.2,1157,471,1154.2,466.8z M1143,479.4c0,1.4-1.4,1.4-2.8,1.4h-4.2v-8.4h2.8c2.8,0,4.2,0,5.6,1.4c0,0,1.4,1.4,1.4,2.8
	C1145.8,477.9,1144.4,479.4,1143,479.4L1143,479.4z M1133.3,490.5h2.8v-7h7c1.4,1.4,2.8,2.8,2.8,4.2v2.8h2.8v-4.2c0,0,0-1.4-1.4-2.8
	c0-1.4-1.4-1.4-2.8-2.8h2.8c1.4-1.4,1.4-2.8,1.4-4.2c0-2.8-1.4-4.2-2.8-5.6c-1.4,0-2.8-1.4-5.6-1.4h-7L1133.3,490.5L1133.3,490.5z"
	/>
</svg>
